<svg width="81" height="80" viewBox="0 0 81 80" fill="none" xmlns="http://www.w3.org/2000/svg">
<path d="M70.8 23.2667C67.9667 20.1334 63.2333 18.5667 56.3667 18.5667H55.5667V18.4334C55.5667 12.8334 55.5667 5.90002 43.0333 5.90002H37.9667C25.4333 5.90002 25.4333 12.8667 25.4333 18.4334V18.6H24.6333C17.7333 18.6 13.0333 20.1667 10.2 23.3C6.9 26.9667 7 31.9 7.33333 35.2667L7.36667 35.5L7.7 39C7.73333 39.0334 7.8 39.1 7.86667 39.1334C8.96667 39.8667 10.1 40.6 11.3 41.2667C11.7667 41.5667 12.2667 41.8334 12.7667 42.1C18.4667 45.2334 24.7333 47.3334 31.1 48.3667C31.4 51.5 32.7667 55.1667 40.0667 55.1667C47.3667 55.1667 48.8 51.5334 49.0333 48.3C55.8333 47.2 62.4 44.8334 68.3333 41.3667C68.5333 41.2667 68.6667 41.1667 68.8333 41.0667C70.3667 40.2 71.8 39.2667 73.2 38.2334C73.2667 38.2 73.3333 38.1334 73.3667 38.0667L73.5 36.8667L73.6667 35.3C73.7 35.1 73.7 34.9334 73.7333 34.7C74 31.3334 73.9333 26.7334 70.8 23.2667ZM44.1333 46.1C44.1333 49.6334 44.1333 50.1667 40.0333 50.1667C35.9333 50.1667 35.9333 49.5334 35.9333 46.1334V41.9334H44.1333V46.1ZM30.2 18.5667V18.4334C30.2 12.7667 30.2 10.6667 37.9667 10.6667H43.0333C50.8 10.6667 50.8 12.8 50.8 18.4334V18.6H30.2V18.5667Z" fill="#FE8B1D"/>
<path opacity="0.4" d="M68.8333 41C68.6667 41.1 68.5 41.2 68.3333 41.3C62.4 44.7667 55.8333 47.1 49.0333 48.2333C48.7667 51.4333 47.3667 55.1 40.0667 55.1C32.7667 55.1 31.3667 51.4667 31.1 48.3C24.7333 47.3 18.4667 45.2 12.7667 42.0333C12.2667 41.7667 11.7667 41.5 11.3 41.2C10.1 40.5333 8.96666 39.8 7.86666 39.0667C7.8 39.0333 7.73333 38.9667 7.7 38.9333L9.73333 60.6333C10.4333 67.2667 13.1667 74.1 27.8333 74.1H53.2333C67.9 74.1 70.6333 67.2667 71.3333 60.6L73.4333 38C73.4 38.0667 73.3333 38.1333 73.2667 38.1667C71.8333 39.2 70.3667 40.1667 68.8333 41Z" fill="#FE8B1D"/>
</svg>
