<svg width="86" height="60" viewBox="0 0 86 60" fill="none" xmlns="http://www.w3.org/2000/svg">
<path d="M38.1153 35.798C31.0132 37.7048 24.5374 36.5963 18.1802 34.1385C15.4543 33.0734 12.9855 31.5485 10.8753 29.615C5.92425 25.1237 2.63985 19.4989 0.888066 13.0573C-0.152863 9.2025 0.211828 5.49184 3.1518 2.38608C3.57172 1.957 4.00195 1.50748 4.49265 1.1909C5.75017 0.363705 7.20572 0.712258 7.96325 2.09287C8.30662 2.72692 8.39448 3.51417 8.62515 4.27082C7.91507 5.6811 5.83704 5.50589 5.52229 7.3458C5.21834 9.06304 5.26127 10.6988 5.80369 12.3041C7.78238 18.1939 10.7422 23.5016 15.8604 27.1546C20.9786 30.8077 26.8832 32.0385 33.1216 31.6952C33.407 31.6852 33.6831 31.4911 33.959 31.3482C34.0714 31.2767 34.1535 31.1643 34.3686 30.9395C33.8445 29.7533 33.3003 28.5057 32.7868 27.248C31.5282 24.1291 30.6881 20.8879 30.7762 17.4735C30.94 11.0741 34.4661 6.90551 40.7497 5.6626C43.6364 5.09208 46.4999 5.12472 49.35 5.79116C53.1469 6.65247 55.9074 8.96473 57.5924 12.4008C59.4188 16.113 59.1053 19.7725 56.5411 23.1444C54.2949 26.087 51.5216 28.4569 48.4139 30.4278C46.993 31.3264 45.6027 32.2148 43.9263 33.2666C46.6592 37.051 50.6547 38.9859 54.2508 41.3089C58.5884 44.1334 66.1711 46.0298 71.7963 46.0439C71.4881 44.4796 70.1678 43.5586 69.6136 42.2803C69.0898 41.043 68.5865 39.7648 68.3279 38.4561C68.1392 37.4643 68.8764 36.7595 69.8257 36.4432C70.7546 36.1167 71.651 36.2093 72.2582 37.0787C72.9564 38.0708 73.5014 39.165 74.2712 40.1163C77.0159 43.5735 79.8733 46.9081 83.6627 49.3028C84.0488 49.5485 84.4348 49.7941 84.7696 50.0908C85.6321 50.8581 86.035 51.8295 85.7237 52.9539C85.4022 54.0986 84.4619 54.65 83.3098 54.7616C81.0463 55.0054 78.7632 55.0857 76.5095 55.4113C73.0421 55.9201 69.6245 56.6844 66.5783 58.5838C66.2001 58.8289 65.7711 59.0229 65.3424 59.1657C63.8927 59.7167 62.7219 59.4604 62.1052 58.4581C61.4682 57.4456 61.5663 56.1371 62.5498 55.0951C63.2669 54.3289 64.1767 53.7365 65.0459 53.1237C65.7312 52.6233 66.4671 52.174 67.7553 51.3366C61.7601 49.8809 56.2315 48.865 51.4157 45.8766C46.6913 42.9598 42.3048 39.7264 38.1153 35.798ZM39.9602 29.5019C43.9639 27.6748 47.3669 25.7245 50.2341 22.9151C51.1967 21.9651 52.1495 20.9332 52.8787 19.7887C54.532 17.2137 54.2878 15.0667 52.3633 12.663C51.0669 11.0367 49.3495 10.0439 47.3428 9.87893C45.5498 9.74481 43.6749 9.72309 41.9306 10.049C37.6262 10.8537 35.6165 13.3774 35.748 17.7222C35.8497 21.9239 37.2169 25.738 39.9602 29.5019Z" fill="white"/>
</svg>
