<svg width="81" height="80" viewBox="0 0 81 80" fill="none" xmlns="http://www.w3.org/2000/svg">
<path opacity="0.4" d="M33.8 59.9333C48.5092 59.9333 60.4333 48.0091 60.4333 33.3C60.4333 18.5908 48.5092 6.66663 33.8 6.66663C19.0908 6.66663 7.16666 18.5908 7.16666 33.3C7.16666 48.0091 19.0908 59.9333 33.8 59.9333Z" fill="#FE8B1D"/>
<path d="M73.7333 53.3C73.7333 64.3 64.8 73.2333 53.8 73.2333C47 73.2333 41.0333 69.8333 37.4333 64.6667C51.9667 63.0333 63.5333 51.4667 65.1667 36.9333C70.3333 40.5333 73.7333 46.5 73.7333 53.3Z" fill="#FE8B1D"/>
<path d="M38.6667 32.3667L30.6667 29.5667C29.8667 29.3 29.7 29.2334 29.7 28.0667C29.7 27.2 30.3 26.5 31.0667 26.5H36.0667C37.1333 26.5 38 27.4667 38 28.6667C38 30.0334 39.1333 31.1667 40.5 31.1667C41.8667 31.1667 43 30.0334 43 28.6667C43 24.8334 40.0333 21.7 36.3333 21.5334V21.3667C36.3333 20 35.2 18.8667 33.8333 18.8667C32.4667 18.8667 31.3333 19.9667 31.3333 21.3667V21.5334H31.0333C27.5333 21.5334 24.6667 24.4667 24.6667 28.1C24.6667 31.2667 26.0667 33.3 28.9667 34.3L37 37.1C37.8 37.3667 37.9667 37.4334 37.9667 38.6C37.9667 39.4667 37.3667 40.1667 36.6 40.1667H31.6C30.5333 40.1667 29.6667 39.2 29.6667 38C29.6667 36.6334 28.5333 35.5 27.1667 35.5C25.8 35.5 24.6667 36.6334 24.6667 38C24.6667 41.8334 27.6333 44.9667 31.3333 45.1334V45.3334C31.3333 46.7 32.4667 47.8334 33.8333 47.8334C35.2 47.8334 36.3333 46.7 36.3333 45.3334V45.1667H36.6333C40.1333 45.1667 43 42.2334 43 38.6C43 35.4334 41.5667 33.4 38.6667 32.3667Z" fill="#FE8B1D"/>
</svg>
