<svg width="1675" height="738" viewBox="0 0 1675 738" fill="none" xmlns="http://www.w3.org/2000/svg">
<g clip-path="url(#clip0_5_20)">
<path d="M498.317 607.646C492.559 652.817 471.384 694.144 448.794 733.954C448.047 735.309 447.279 736.645 446.491 738H211.708C206.96 736.766 202.273 735.411 197.605 733.954C171.087 725.871 146.052 713.54 123.473 697.441C37.0962 635.137 3.85843 517.406 18.8712 411.914C28.2062 346.373 56.9372 279.457 112.885 244.158C142.425 225.487 180.37 219.418 214.375 226.357C215.265 226.518 216.154 226.721 217.062 226.903C246.319 233.497 272.384 249.883 287.215 276.281C313.885 323.717 298.004 382.481 284.891 435.278C271.818 488.075 264.726 551.269 302.672 590.209C290.144 553.292 302.51 509.254 332.434 484.292C355.043 465.459 386.523 458.399 415.234 464.246C417.982 464.832 420.69 465.5 423.356 466.309C429.802 468.199 436.017 470.804 441.884 474.077C486.638 499.1 504.763 556.731 498.317 607.646Z" fill="#F2F2F2"/>
<path d="M359.105 733.954C365.61 735.471 372.136 736.806 378.703 738H343.203C338.555 736.746 333.928 735.411 329.343 733.954C319.26 730.798 309.332 727.178 299.56 723.091C260.362 706.625 224.256 681.906 196.938 649.014C183.578 633.078 172.669 615.236 164.57 596.076C155.788 574.42 150.206 551.598 148.002 528.33C143.052 480.59 148.103 431.536 157.538 384.646C167.276 336.047 182.994 288.844 204.334 244.117C206.9 238.757 209.553 233.43 212.294 228.137C212.483 227.701 212.768 227.314 213.129 227.006C213.49 226.697 213.916 226.475 214.375 226.357C215.308 226.176 216.274 226.372 217.063 226.903C218.009 227.446 218.71 228.333 219.022 229.379C219.335 230.426 219.233 231.552 218.74 232.526C196.738 275.484 180.059 320.971 169.075 367.977C158.327 413.836 152.225 461.818 154.305 508.971C156.286 553.029 167.783 596.359 193.867 632.386C217.689 665.278 250.582 691.211 286.972 708.871C310.005 719.903 334.2 728.317 359.105 733.954Z" fill="white"/>
<path d="M437.015 738H426.549C425.377 736.665 424.245 735.309 423.134 733.954C399.294 704.954 383.144 670.404 376.177 633.499C367.716 587.443 374.298 539.883 394.948 497.866C400.709 486.083 407.497 474.833 415.234 464.246C417.981 464.832 420.689 465.5 423.356 466.309C403.007 493.302 389.319 524.729 383.411 558.026C378.14 589.226 379.892 621.211 388.54 651.647C397.188 682.083 412.514 710.203 433.399 733.954C434.57 735.309 435.782 736.665 437.015 738Z" fill="white"/>
<path d="M1379.86 703.597C1381.38 715.519 1386.97 726.426 1392.93 736.932C1393.13 737.29 1393.33 737.642 1393.54 738H1455.5C1456.76 737.674 1457.99 737.317 1459.23 736.932C1466.23 734.799 1472.83 731.545 1478.79 727.296C1501.59 710.853 1510.36 679.781 1506.4 651.94C1503.93 634.643 1496.35 616.982 1481.59 607.666C1473.57 602.777 1464 601.099 1454.8 602.968C1454.57 603.011 1454.33 603.064 1454.09 603.112C1450.26 603.853 1446.63 605.398 1443.44 607.644C1440.25 609.89 1437.57 612.787 1435.58 616.144C1428.54 628.663 1432.73 644.172 1436.19 658.106C1439.64 672.04 1441.51 688.718 1431.5 698.995C1432.97 694.698 1433.26 690.086 1432.36 685.634C1431.46 681.183 1429.39 677.052 1426.36 673.667C1423.34 670.282 1419.47 667.764 1415.15 666.373C1410.83 664.982 1406.22 664.767 1401.79 665.751C1401.07 665.906 1400.35 666.082 1399.65 666.296C1397.95 666.795 1396.31 667.482 1394.76 668.346C1382.95 674.95 1378.16 690.16 1379.86 703.597Z" fill="#F2F2F2"/>
<path d="M1416.6 736.932C1414.89 737.333 1413.16 737.685 1411.43 738H1420.8C1422.03 737.669 1423.25 737.317 1424.46 736.932C1427.12 736.099 1429.74 735.144 1432.32 734.065C1442.78 729.813 1452.07 723.108 1459.4 714.515C1462.93 710.309 1465.81 705.6 1467.95 700.544C1470.26 694.828 1471.74 688.805 1472.32 682.664C1473.38 669.969 1472.53 657.186 1469.8 644.743C1467.23 631.917 1463.08 619.46 1457.45 607.655C1456.77 606.241 1456.07 604.835 1455.35 603.438C1455.3 603.323 1455.22 603.221 1455.13 603.139C1455.03 603.058 1454.92 602.999 1454.8 602.968C1454.55 602.92 1454.3 602.972 1454.09 603.112C1453.84 603.255 1453.66 603.489 1453.57 603.766C1453.49 604.042 1453.52 604.339 1453.65 604.596C1459.46 615.933 1463.86 627.938 1466.76 640.344C1469.74 652.512 1471.05 665.032 1470.65 677.555C1470.44 689.203 1466.81 700.53 1460.21 710.127C1453.8 718.769 1445.36 725.701 1435.64 730.312C1429.56 733.224 1423.18 735.445 1416.6 736.932Z" fill="white"/>
<path d="M1396.04 738H1398.8C1399.11 737.648 1399.41 737.29 1399.71 736.932C1406 729.279 1410.26 720.16 1412.1 710.42C1414.33 698.265 1412.59 685.713 1407.14 674.624C1405.62 671.515 1403.83 668.545 1401.79 665.751C1401.07 665.906 1400.35 666.082 1399.65 666.296C1405.02 673.42 1408.63 681.714 1410.19 690.501C1411.58 698.736 1411.12 707.177 1408.84 715.21C1406.55 723.243 1402.51 730.664 1397 736.932C1396.69 737.29 1396.37 737.648 1396.04 738Z" fill="white"/>
<path d="M821.356 429.876H627.425L625.369 370.179C625.281 367.592 625.753 365.015 626.754 362.628C627.754 360.24 629.26 358.098 631.167 356.349C633.074 354.6 635.337 353.285 637.8 352.495C640.263 351.705 642.868 351.459 645.435 351.774L758.289 365.609H758.303C775.034 365.654 791.065 372.337 802.884 384.194C814.702 396.05 821.345 412.114 821.356 428.864V429.876Z" fill="#222222"/>
<path d="M734.921 218.124H599.664C597.865 218.123 596.083 218.477 594.421 219.166C592.759 219.855 591.249 220.865 589.977 222.139C588.705 223.412 587.696 224.924 587.008 226.588C586.32 228.252 585.966 230.036 585.967 231.836V367.251C585.966 369.052 586.32 370.836 587.008 372.5C587.696 374.163 588.705 375.675 589.977 376.949C591.249 378.222 592.759 379.232 594.421 379.921C596.083 380.61 597.865 380.965 599.664 380.964H734.921C736.719 380.965 738.501 380.61 740.163 379.921C741.825 379.232 743.335 378.222 744.607 376.949C745.879 375.675 746.888 374.164 747.576 372.5C748.264 370.836 748.618 369.052 748.618 367.251V231.836C748.618 230.036 748.264 228.252 747.576 226.588C746.888 224.924 745.879 223.412 744.607 222.139C743.335 220.865 741.825 219.855 740.163 219.166C738.501 218.477 736.719 218.123 734.921 218.124Z" fill="#CCCCCC"/>
<path d="M748.617 231.836V249.835H585.967V231.836C585.966 230.036 586.32 228.252 587.008 226.588C587.696 224.924 588.705 223.412 589.977 222.139C591.249 220.865 592.759 219.855 594.421 219.166C596.083 218.477 597.865 218.123 599.664 218.124H734.921C736.719 218.123 738.501 218.477 740.163 219.166C741.825 219.855 743.335 220.865 744.607 222.139C745.879 223.412 746.888 224.924 747.576 226.588C748.264 228.252 748.618 230.036 748.617 231.836Z" fill="#B3B3B3"/>
<path d="M1073.42 255.471C1072.48 252.436 1070.88 249.645 1068.75 247.293C1066.62 244.941 1064 243.086 1061.07 241.858C1058.14 240.631 1054.98 240.06 1051.81 240.188C1048.64 240.315 1045.54 241.137 1042.72 242.596L856.636 175.755L848.44 222.295L1033.93 273.363C1036.69 277.942 1041.03 281.348 1046.14 282.936C1051.24 284.523 1056.74 284.182 1061.61 281.976C1066.48 279.771 1070.37 275.854 1072.54 270.969C1074.72 266.084 1075.03 260.57 1073.42 255.471Z" fill="#FFB8B8"/>
<path opacity="0.2" d="M1073.42 255.471C1072.48 252.436 1070.88 249.645 1068.75 247.293C1066.62 244.941 1064 243.086 1061.07 241.858C1058.14 240.631 1054.98 240.06 1051.81 240.188C1048.64 240.315 1045.54 241.137 1042.72 242.596L856.636 175.755L848.44 222.295L1033.93 273.363C1036.69 277.942 1041.03 281.348 1046.14 282.936C1051.24 284.523 1056.74 284.182 1061.61 281.976C1066.48 279.771 1070.37 275.854 1072.54 270.969C1074.72 266.084 1075.03 260.57 1073.42 255.471Z" fill="black"/>
<path d="M889.664 184.235L872.092 230.195C871.592 231.503 870.817 232.687 869.818 233.668C868.82 234.648 867.622 235.402 866.306 235.877C864.991 236.353 863.588 236.538 862.195 236.422C860.801 236.306 859.449 235.89 858.23 235.203L815.524 211.139C808.856 208.54 803.49 203.399 800.602 196.845C797.714 190.291 797.54 182.858 800.117 176.175C802.695 169.492 807.814 164.105 814.352 161.195C820.89 158.285 828.314 158.09 834.996 160.651L882.685 171.24C884.05 171.544 885.334 172.138 886.449 172.984C887.564 173.829 888.484 174.905 889.147 176.138C889.809 177.371 890.198 178.733 890.287 180.13C890.377 181.527 890.164 182.928 889.664 184.235Z" fill="#222222"/>
<path d="M1088.06 298.027L1021.39 328.37L1030.14 361.365C1047.04 425.08 1051.53 491.46 1043.35 556.874L1092.1 567.068L1132.51 463.902L1118.37 346.575L1088.06 298.027Z" fill="#222222"/>
<path d="M1218.89 450.753C1175.08 450.753 1139.38 482.637 1137.65 522.565H1300.13C1298.4 482.637 1262.7 450.753 1218.89 450.753Z" fill="#3F3D56"/>
<path d="M1184.79 457.634C1182.51 277.4 1079.98 293.981 1079.98 293.981C1079.98 293.981 1081.9 350.082 1082.82 351.827C1148.15 475.585 1040.33 620.673 903.076 593.981C900.488 593.478 898.002 592.968 895.617 592.45C878.226 588.815 862.872 578.684 852.676 564.118C842.481 549.551 838.21 531.644 840.734 514.038C854.254 405.338 787.007 407.262 787.007 407.262H688.676L637.611 361.25C635.809 359.626 633.636 358.468 631.284 357.879C628.931 357.29 626.47 357.286 624.116 357.869C621.762 358.452 619.587 359.604 617.78 361.223C615.973 362.842 614.59 364.88 613.752 367.158L607.182 385.01C607.182 385.01 510.198 395.124 518.28 490.199H548.264C548.191 492.9 548.299 495.604 548.587 498.291L772.36 496.469C785.477 496.362 797.055 507.003 797.11 520.136C797.123 523.333 796.492 526.5 795.255 529.448C794.017 532.395 792.199 535.063 789.908 537.29C787.617 539.518 784.901 541.26 781.923 542.412C778.944 543.565 775.763 544.104 772.572 543.998L736.495 542.794C725.382 592.354 752.659 625.731 782.714 646.718C811.011 666.192 844.589 676.517 878.925 676.303H976.935C1104.23 676.303 1126.45 569.091 1126.45 569.091C1193.13 540.771 1184.79 457.634 1184.79 457.634Z" fill="#3F3D56"/>
<path d="M1212.83 734.966C1275.6 734.966 1326.48 684.022 1326.48 621.179C1326.48 558.337 1275.6 507.393 1212.83 507.393C1150.06 507.393 1099.18 558.337 1099.18 621.179C1099.18 684.022 1150.06 734.966 1212.83 734.966Z" fill="#3F3D56"/>
<path d="M1212.83 649.068C1228.21 649.068 1240.69 636.582 1240.69 621.179C1240.69 605.777 1228.21 593.291 1212.83 593.291C1197.44 593.291 1184.97 605.777 1184.97 621.179C1184.97 636.582 1197.44 649.068 1212.83 649.068Z" fill="white"/>
<path d="M639.005 734.966C711.259 734.966 769.833 676.324 769.833 603.985C769.833 531.647 711.259 473.005 639.005 473.005C566.751 473.005 508.177 531.647 508.177 603.985C508.177 676.324 566.751 734.966 639.005 734.966Z" fill="#3F3D56"/>
<path d="M639.005 636.088C656.714 636.088 671.071 621.715 671.071 603.985C671.071 586.255 656.714 571.882 639.005 571.882C621.296 571.882 606.939 586.255 606.939 603.985C606.939 621.715 621.296 636.088 639.005 636.088Z" fill="white"/>
<path d="M1021.58 337.335L997.585 272.099C996.334 268.699 995.765 265.086 995.91 261.466C996.054 257.845 996.91 254.289 998.427 251C999.944 247.711 1002.09 244.753 1004.75 242.295C1007.41 239.838 1010.53 237.929 1013.92 236.677L1082.7 211.328C1088.68 209.125 1095.03 208.122 1101.39 208.376C1107.75 208.63 1114 210.136 1119.78 212.809C1125.56 215.481 1130.76 219.268 1135.08 223.951C1139.4 228.635 1142.76 234.125 1144.96 240.107C1146.94 245.477 1147.96 251.157 1147.95 256.882C1147.92 264.151 1146.28 271.324 1143.14 277.877C1140 284.431 1135.44 290.202 1129.79 294.77C1125.71 298.047 1121.12 300.636 1116.21 302.435L1021.58 337.335Z" fill="#3F3D56"/>
<path d="M1146.94 256.882C1146.93 264.003 1145.33 271.032 1142.26 277.453C1139.18 283.873 1134.7 289.521 1129.16 293.981C1120.65 291.734 1112.74 287.66 1105.96 282.04C1099.18 276.421 1093.71 269.392 1089.92 261.441C1086.14 253.491 1084.12 244.81 1084.03 236.002C1083.93 227.194 1085.75 218.47 1089.36 210.437C1096.29 208.928 1103.47 208.992 1110.37 210.625C1117.27 212.257 1123.72 215.417 1129.24 219.871C1134.77 224.326 1139.22 229.962 1142.28 236.367C1145.35 242.771 1146.94 249.781 1146.94 256.882Z" fill="#222222"/>
<path d="M535.454 503.348C551.076 503.348 563.741 487.951 563.741 468.959C563.741 449.966 551.076 434.57 535.454 434.57C519.831 434.57 507.167 449.966 507.167 468.959C507.167 487.951 519.831 503.348 535.454 503.348Z" fill="#222222"/>
<path d="M909.371 590.687H934.143L945.928 526.366L909.367 526.368L909.371 590.687Z" fill="#FFB8B8"/>
<path d="M903.052 582.59L951.835 582.588H951.837C955.92 582.588 959.962 583.393 963.734 584.957C967.506 586.521 970.933 588.814 973.82 591.704C976.707 594.594 978.997 598.025 980.559 601.801C982.122 605.578 982.926 609.625 982.926 613.712V614.724L903.054 614.727L903.052 582.59Z" fill="#2F2E41"/>
<path d="M938.124 564.287C937.835 564.287 937.546 564.274 937.255 564.246L902.974 561.747C901.587 561.618 900.249 561.172 899.062 560.444C897.875 559.715 896.871 558.724 896.127 557.545C895.384 556.367 894.92 555.033 894.773 553.647C894.625 552.261 894.798 550.859 895.277 549.55L941.156 446.355C941.484 445.435 941.618 444.457 941.549 443.482C941.481 442.508 941.212 441.558 940.759 440.693C940.308 439.818 939.676 439.048 938.906 438.434C938.136 437.821 937.245 437.377 936.292 437.133C914.718 431.488 859.367 416.454 811.452 398.865C790.923 391.328 777.994 380.438 773.024 366.495C766.471 348.113 776.165 331.35 776.581 330.646L776.906 330.095L821.993 334.198L870.872 338.361L977.986 395.866C986.961 400.725 993.779 408.791 997.081 418.457C1000.38 428.123 999.927 438.68 995.804 448.024L946.421 558.892C945.706 560.498 944.542 561.862 943.07 562.819C941.598 563.777 939.88 564.287 938.124 564.287Z" fill="#2F2E41"/>
<path d="M829.833 130.032C857.24 130.032 879.459 107.788 879.459 80.3486C879.459 52.9091 857.24 30.6649 829.833 30.6649C802.425 30.6649 780.207 52.9091 780.207 80.3486C780.207 107.788 802.425 130.032 829.833 130.032Z" fill="#FFB8B8"/>
<path d="M895.228 596.755H919.999L931.785 532.434L895.224 532.436L895.228 596.755Z" fill="#FFB8B8"/>
<path d="M888.909 588.659L937.692 588.657H937.694C941.776 588.657 945.819 589.462 949.591 591.026C953.363 592.59 956.79 594.882 959.677 597.773C962.563 600.663 964.853 604.094 966.416 607.87C967.978 611.646 968.782 615.694 968.782 619.781V620.792L888.911 620.795L888.909 588.659Z" fill="#2F2E41"/>
<path d="M923.98 570.356C923.692 570.356 923.402 570.342 923.111 570.314L888.83 567.816C887.444 567.687 886.106 567.241 884.919 566.512C883.732 565.784 882.727 564.792 881.984 563.614C881.24 562.435 880.777 561.102 880.629 559.716C880.482 558.329 880.654 556.928 881.134 555.619L927.012 452.423C927.34 451.503 927.474 450.525 927.406 449.551C927.337 448.577 927.068 447.627 926.616 446.762C926.164 445.886 925.532 445.117 924.762 444.503C923.992 443.889 923.101 443.446 922.148 443.202C900.575 437.556 845.223 422.523 797.308 404.933C776.78 397.397 763.851 386.506 758.88 372.564C752.328 354.182 762.022 337.418 762.438 336.715L762.763 336.164L807.85 340.267L856.728 344.429L963.842 401.935C972.817 406.794 979.635 414.86 982.937 424.526C986.239 434.192 985.783 444.748 981.66 454.093L932.277 564.961C931.563 566.567 930.399 567.931 928.927 568.888C927.454 569.846 925.736 570.355 923.98 570.356Z" fill="#2F2E41"/>
<path d="M845.138 158.205L792.605 139.999C792.605 139.999 759.626 165.366 775.469 228.294C783.74 260.768 781.33 295.046 768.599 326.04C767.066 329.874 765.299 333.611 763.307 337.229C763.307 337.229 821.902 408.029 876.456 355.434L855.24 253.28C855.24 253.28 888.579 185.514 845.138 158.205Z" fill="#222222"/>
<path d="M835.994 131.722C828.931 121.138 823.357 106.461 831.134 96.3908C838.81 86.4501 853.95 87.9146 865.706 83.5159C882.08 77.3893 891.576 58.1304 888.614 40.8827C885.653 23.6351 871.823 9.33733 855.349 3.48714C838.874 -2.36304 820.296 -0.460427 804.163 6.27642C784.303 14.5696 767.266 30.6121 760.122 50.9337C752.979 71.2554 756.797 95.6554 771.618 111.275C787.507 128.021 812.443 132.484 835.512 132.213" fill="#2F2E41"/>
<path d="M789.832 41.4363C780.932 48.69 767.353 45.4682 757.8 39.1021C748.246 32.7361 740.494 23.6712 730.157 18.68C711.934 9.88059 689.901 15.7301 672.165 25.477C654.429 35.2238 638.707 48.6894 619.973 56.3382C601.239 63.987 577.332 64.365 563.146 49.9224C559.655 60.0485 559.37 71.0064 562.329 81.3009C565.288 91.5953 571.348 100.725 579.681 107.444C588.014 114.164 598.215 118.145 608.892 118.846C619.569 119.547 630.202 116.932 639.34 111.36C659.867 98.8415 671.205 72.5942 694.229 65.6848C706.969 61.8615 720.65 64.9408 733.526 68.2762C746.402 71.6116 759.829 75.2155 772.823 72.3761C785.818 69.5366 797.972 57.8456 796.319 44.633L789.832 41.4363Z" fill="#2F2E41"/>
<path d="M1070.95 253.447C1069.64 250.552 1067.72 247.978 1065.31 245.908C1062.9 243.837 1060.07 242.32 1057.02 241.464C1053.96 240.607 1050.75 240.432 1047.62 240.95C1044.49 241.468 1041.51 242.667 1038.9 244.462L845.999 201.118L843.601 248.316L1033.97 276.081C1037.27 280.283 1042 283.127 1047.26 284.072C1052.52 285.017 1057.94 283.998 1062.5 281.208C1067.06 278.418 1070.43 274.051 1071.99 268.935C1073.55 263.818 1073.18 258.308 1070.95 253.447Z" fill="#FFB8B8"/>
<path d="M879.82 205.454L868.046 253.233C867.711 254.593 867.088 255.864 866.218 256.96C865.348 258.057 864.252 258.953 863.005 259.587C861.758 260.221 860.389 260.579 858.992 260.635C857.594 260.692 856.201 260.447 854.907 259.916L809.562 241.31C802.62 239.559 796.656 235.122 792.979 228.973C789.301 222.824 788.21 215.465 789.945 208.512C791.68 201.559 796.099 195.578 802.233 191.883C808.367 188.188 815.715 187.081 822.663 188.803L871.292 193.42C872.685 193.553 874.032 193.984 875.243 194.685C876.454 195.386 877.499 196.34 878.308 197.482C879.118 198.624 879.671 199.927 879.932 201.303C880.193 202.679 880.155 204.095 879.82 205.454Z" fill="#222222"/>
<path d="M1048.66 290.947C1056.47 290.947 1062.81 284.607 1062.81 276.787C1062.81 268.966 1056.47 262.627 1048.66 262.627C1040.85 262.627 1034.52 268.966 1034.52 276.787C1034.52 284.607 1040.85 290.947 1048.66 290.947Z" fill="#222222"/>
<path d="M633.94 335.124C635.886 339.076 639.897 341.715 644.138 342.894C648.379 344.073 652.865 343.959 657.252 343.599C670.867 342.48 684.291 339.055 696.78 333.513C701.924 331.23 707.031 328.498 710.753 324.275C714.475 320.051 716.605 314.054 714.981 308.66C688.384 319.191 661.073 327.913 633.298 334.747" fill="#FE8B1D"/>
<path d="M620.619 309.959C620.914 315.117 621.229 320.382 623.02 325.268C624.811 330.154 628.368 334.685 633.034 336.095C636.315 337.086 639.723 336.454 642.994 335.815C665.551 331.411 688.525 326.853 708.348 315.114C712.212 312.827 716.146 310.007 717.736 305.548C719.329 301.083 718.24 295.932 717.138 291.135C716.261 287.32 714.753 282.785 711.221 281.826C709.174 281.27 707.136 282.178 705.265 283.052C678.415 295.6 650.171 305.001 621.155 311.045" fill="#CA0000"/>
<path d="M678.091 296.824L686.357 300.446C691.5 302.698 697.487 300.212 699.511 294.97C700.915 291.333 702.659 287.828 704.716 284.517C696.329 289.776 687.256 293.939 677.801 296.868" fill="#00BC08"/>
<path d="M624.957 314.089L632.877 317.559C638.048 319.824 644.048 317.317 646.103 312.054C647.469 308.553 649.156 305.178 651.139 301.986C642.891 307.158 633.969 311.252 624.671 314.132" fill="#00BC08"/>
<path d="M637.046 308.346C654.544 316.011 674.981 308.864 683.914 291.962C685.206 289.519 686.582 287.121 688.04 284.773C671.976 294.847 654.599 302.82 636.491 308.428" fill="#00BC08"/>
<path d="M624.221 307.021C622.194 307.785 621.463 310.576 622.461 312.5C623.459 314.424 625.712 315.448 627.876 315.508C630.041 315.567 632.142 314.815 634.127 313.948C638.137 312.198 641.904 309.945 645.659 307.699L676.309 289.367C677.404 288.712 678.595 287.932 678.901 286.692C679.34 284.906 677.546 283.197 675.718 283.021C673.889 282.846 672.141 283.727 670.531 284.613C659.966 290.428 650.098 297.604 638.942 302.18C634.057 304.184 628.96 305.67 623.765 306.606" fill="#FFDE68"/>
<path d="M654.818 292.466C652.702 292.933 651.726 296.681 652.574 299.724C653.422 302.766 655.615 304.912 657.801 305.659C659.987 306.406 662.179 305.979 664.261 305.353C668.468 304.089 672.472 302.037 676.463 299.991L709.04 283.287C710.204 282.69 711.476 281.945 711.89 280.273C712.486 277.867 710.815 274.887 708.978 274.078C707.142 273.269 705.298 273.987 703.593 274.755C692.406 279.796 681.81 286.986 670.13 290.083C665.015 291.439 659.73 291.994 654.391 291.736" fill="#FFDE68"/>
<path d="M712.351 278.34C684.957 285.489 658.522 296.18 633.804 310.107C631.762 311.257 629.707 312.44 627.445 313.031C625.183 313.623 622.652 313.566 620.56 312.327C617.269 310.378 615.856 305.908 616.351 302.047C616.846 298.186 618.868 294.817 620.997 291.708C627.906 281.617 636.566 272.774 646.923 266.794C657.28 260.815 669.395 257.803 681.379 259.312C693.362 260.821 705.133 267.056 712.924 277.093" fill="#FE8B1D"/>
</g>
<defs>
<clipPath id="clip0_5_20">
<rect width="1675" height="738" fill="white"/>
</clipPath>
</defs>
</svg>
