<svg width="214" height="58" viewBox="0 0 214 58" fill="none" xmlns="http://www.w3.org/2000/svg">
<path d="M11.5765 26.2406L3.92533 14.0641C3.08841 12.7322 4.04573 11 5.61877 11H27.8972C28.6281 11 29.3008 11.3987 29.6516 12.0398L37.4797 26.3435C37.8043 26.9366 37.8072 27.6535 37.4876 28.2492L29.6483 42.8599C29.2999 43.5091 28.6228 43.9143 27.886 43.9143H5.58111C4.01604 43.9143 3.05741 42.1978 3.87828 40.8653L11.5859 28.3537C11.9855 27.705 11.9818 26.8857 11.5765 26.2406Z" fill="#FE8B1D" stroke="white" stroke-width="6"/>
<path d="M9.5 37.5L3.5 47H14L9.5 37.5Z" fill="#FE8B1D"/>
<path d="M60.2699 29.88C61.5179 29.88 62.5899 29.704 63.4859 29.352C64.3979 28.984 65.1499 28.488 65.7419 27.864C66.3339 27.224 66.7739 26.48 67.0619 25.632C67.3499 24.784 67.4939 23.872 67.4939 22.896C67.4939 21.392 67.0219 20.216 66.0779 19.368C65.1499 18.52 63.7179 18.096 61.7819 18.096H58.1339L56.6939 29.88H60.2699ZM62.3579 13.296C64.3579 13.296 66.0699 13.512 67.4939 13.944C68.9339 14.36 70.1099 14.952 71.0219 15.72C71.9339 16.472 72.6059 17.376 73.0379 18.432C73.4699 19.488 73.6859 20.648 73.6859 21.912C73.6859 23.24 73.4939 24.496 73.1099 25.68C72.7419 26.864 72.2059 27.936 71.5019 28.896C70.7979 29.856 69.9339 30.696 68.9099 31.416C67.8859 32.136 66.7259 32.696 65.4299 33.096C65.7979 33.32 66.1259 33.592 66.4139 33.912C66.7179 34.232 66.9819 34.616 67.2059 35.064L73.3979 48H67.8059C66.7339 48 66.0219 47.584 65.6699 46.752L60.5819 35.496C60.3899 35.08 60.1499 34.784 59.8619 34.608C59.5899 34.416 59.1579 34.32 58.5659 34.32H56.1419L54.4619 48H48.2699L52.4939 13.296H62.3579ZM87.5031 27.168C86.7031 27.168 85.9591 27.336 85.2711 27.672C84.5831 27.992 83.9591 28.448 83.3991 29.04C82.8551 29.632 82.3751 30.344 81.9591 31.176C81.5591 31.992 81.2391 32.888 80.9991 33.864C82.9831 33.592 84.5751 33.296 85.7751 32.976C86.9911 32.64 87.9271 32.288 88.5831 31.92C89.2391 31.536 89.6711 31.128 89.8791 30.696C90.1031 30.248 90.2151 29.784 90.2151 29.304C90.2151 29.064 90.1591 28.816 90.0471 28.56C89.9511 28.304 89.7911 28.08 89.5671 27.888C89.3591 27.68 89.0791 27.512 88.7271 27.384C88.3911 27.24 87.9831 27.168 87.5031 27.168ZM80.4951 37.968C80.4951 41.84 82.1351 43.776 85.4151 43.776C86.1191 43.776 86.7431 43.712 87.2871 43.584C87.8311 43.44 88.3031 43.272 88.7031 43.08C89.1191 42.888 89.4871 42.672 89.8071 42.432C90.1431 42.192 90.4471 41.976 90.7191 41.784C91.0071 41.592 91.2871 41.432 91.5591 41.304C91.8311 41.16 92.1271 41.088 92.4471 41.088C92.6391 41.088 92.8231 41.136 92.9991 41.232C93.1911 41.328 93.3591 41.456 93.5031 41.616L95.0151 43.44C94.1671 44.288 93.3351 45.024 92.5191 45.648C91.7031 46.272 90.8711 46.784 90.0231 47.184C89.1751 47.584 88.2791 47.88 87.3351 48.072C86.3911 48.264 85.3671 48.36 84.2631 48.36C82.8231 48.36 81.5191 48.12 80.3511 47.64C79.1831 47.144 78.1831 46.456 77.3511 45.576C76.5191 44.68 75.8711 43.608 75.4071 42.36C74.9591 41.096 74.7351 39.688 74.7351 38.136C74.7351 36.84 74.8711 35.568 75.1431 34.32C75.4311 33.072 75.8391 31.888 76.3671 30.768C76.8951 29.648 77.5431 28.616 78.3111 27.672C79.0791 26.728 79.9431 25.912 80.9031 25.224C81.8791 24.536 82.9431 24 84.0951 23.616C85.2631 23.232 86.5111 23.04 87.8391 23.04C89.1191 23.04 90.2391 23.224 91.1991 23.592C92.1751 23.96 92.9831 24.44 93.6231 25.032C94.2791 25.608 94.7671 26.256 95.0871 26.976C95.4071 27.696 95.5671 28.4 95.5671 29.088C95.5671 30.192 95.3431 31.2 94.8951 32.112C94.4631 33.024 93.6791 33.84 92.5431 34.56C91.4231 35.28 89.8871 35.904 87.9351 36.432C85.9831 36.944 83.5031 37.352 80.4951 37.656V37.968ZM114.47 28.008C114.294 28.264 114.126 28.448 113.966 28.56C113.806 28.656 113.598 28.704 113.342 28.704C113.054 28.704 112.766 28.624 112.478 28.464C112.19 28.304 111.854 28.128 111.47 27.936C111.102 27.728 110.67 27.544 110.174 27.384C109.694 27.224 109.118 27.144 108.446 27.144C107.182 27.144 106.214 27.432 105.542 28.008C104.87 28.568 104.534 29.272 104.534 30.12C104.534 30.776 104.766 31.304 105.23 31.704C105.71 32.104 106.31 32.456 107.03 32.76C107.75 33.064 108.518 33.376 109.334 33.696C110.166 34 110.942 34.392 111.662 34.872C112.382 35.336 112.974 35.944 113.438 36.696C113.918 37.432 114.158 38.384 114.158 39.552C114.158 40.736 113.918 41.864 113.438 42.936C112.974 44.008 112.302 44.952 111.422 45.768C110.542 46.568 109.478 47.208 108.23 47.688C106.998 48.152 105.606 48.384 104.054 48.384C103.286 48.384 102.534 48.304 101.798 48.144C101.062 48 100.374 47.792 99.7338 47.52C99.1098 47.248 98.5338 46.928 98.0058 46.56C97.4778 46.192 97.0297 45.792 96.6617 45.36L98.1258 43.104C98.3018 42.832 98.5098 42.624 98.7498 42.48C98.9898 42.336 99.2858 42.264 99.6378 42.264C99.9738 42.264 100.278 42.368 100.55 42.576C100.822 42.784 101.134 43.016 101.486 43.272C101.854 43.512 102.294 43.736 102.806 43.944C103.334 44.152 104.006 44.256 104.822 44.256C105.478 44.256 106.054 44.168 106.55 43.992C107.062 43.816 107.494 43.576 107.846 43.272C108.198 42.968 108.462 42.616 108.638 42.216C108.814 41.816 108.902 41.392 108.902 40.944C108.902 40.4 108.766 39.952 108.494 39.6C108.222 39.232 107.854 38.92 107.39 38.664C106.942 38.392 106.43 38.16 105.854 37.968C105.278 37.76 104.686 37.544 104.078 37.32C103.486 37.096 102.902 36.84 102.326 36.552C101.766 36.264 101.254 35.904 100.79 35.472C100.342 35.024 99.9818 34.488 99.7098 33.864C99.4378 33.224 99.3018 32.448 99.3018 31.536C99.3018 30.448 99.5098 29.392 99.9258 28.368C100.342 27.328 100.95 26.416 101.75 25.632C102.55 24.832 103.534 24.192 104.702 23.712C105.886 23.232 107.238 22.992 108.758 22.992C110.326 22.992 111.718 23.264 112.934 23.808C114.15 24.336 115.166 25.016 115.982 25.848L114.47 28.008ZM127.635 43.8C128.627 43.8 129.523 43.52 130.323 42.96C131.123 42.384 131.803 41.624 132.363 40.68C132.923 39.72 133.355 38.608 133.659 37.344C133.963 36.08 134.115 34.752 134.115 33.36C134.115 31.36 133.779 29.896 133.107 28.968C132.435 28.024 131.411 27.552 130.035 27.552C129.043 27.552 128.139 27.832 127.323 28.392C126.523 28.952 125.843 29.712 125.283 30.672C124.723 31.616 124.291 32.72 123.987 33.984C123.683 35.248 123.531 36.584 123.531 37.992C123.531 39.992 123.867 41.464 124.539 42.408C125.211 43.336 126.243 43.8 127.635 43.8ZM127.083 48.36C125.723 48.36 124.467 48.136 123.315 47.688C122.163 47.224 121.163 46.552 120.315 45.672C119.467 44.792 118.803 43.712 118.323 42.432C117.843 41.152 117.603 39.688 117.603 38.04C117.603 35.912 117.947 33.928 118.635 32.088C119.323 30.248 120.251 28.656 121.419 27.312C122.603 25.968 123.979 24.912 125.547 24.144C127.115 23.376 128.787 22.992 130.563 22.992C131.923 22.992 133.179 23.224 134.331 23.688C135.499 24.136 136.499 24.8 137.331 25.68C138.179 26.56 138.843 27.64 139.323 28.92C139.803 30.2 140.043 31.664 140.043 33.312C140.043 35.424 139.699 37.4 139.011 39.24C138.323 41.064 137.387 42.656 136.203 44.016C135.035 45.36 133.667 46.424 132.099 47.208C130.531 47.976 128.859 48.36 127.083 48.36ZM142.704 48L147.024 12.336H152.88L148.536 48H142.704ZM177.781 23.376L165.637 48H160.669L154.501 23.376H159.373C159.789 23.376 160.117 23.48 160.357 23.688C160.613 23.896 160.773 24.16 160.837 24.48L163.405 37.632C163.533 38.432 163.637 39.216 163.717 39.984C163.797 40.752 163.861 41.52 163.909 42.288C164.389 40.752 164.949 39.2 165.589 37.632L171.469 24.48C171.613 24.16 171.829 23.896 172.117 23.688C172.421 23.48 172.757 23.376 173.125 23.376H177.781ZM186.672 23.376L183.72 48H177.888L180.84 23.376H186.672ZM188.184 16.2C188.184 16.712 188.072 17.192 187.848 17.64C187.64 18.088 187.36 18.48 187.008 18.816C186.656 19.152 186.256 19.424 185.808 19.632C185.36 19.824 184.896 19.92 184.416 19.92C183.952 19.92 183.504 19.824 183.072 19.632C182.64 19.424 182.256 19.152 181.92 18.816C181.584 18.48 181.312 18.088 181.104 17.64C180.912 17.192 180.816 16.712 180.816 16.2C180.816 15.688 180.92 15.2 181.128 14.736C181.336 14.272 181.608 13.872 181.944 13.536C182.28 13.184 182.664 12.912 183.096 12.72C183.544 12.512 184 12.408 184.464 12.408C184.944 12.408 185.408 12.512 185.856 12.72C186.304 12.912 186.696 13.176 187.032 13.512C187.384 13.848 187.664 14.248 187.872 14.712C188.08 15.176 188.184 15.672 188.184 16.2ZM199.541 43.8C200.533 43.8 201.429 43.52 202.229 42.96C203.029 42.384 203.709 41.624 204.269 40.68C204.829 39.72 205.261 38.608 205.565 37.344C205.869 36.08 206.021 34.752 206.021 33.36C206.021 31.36 205.685 29.896 205.013 28.968C204.341 28.024 203.317 27.552 201.941 27.552C200.949 27.552 200.045 27.832 199.229 28.392C198.429 28.952 197.749 29.712 197.189 30.672C196.629 31.616 196.197 32.72 195.893 33.984C195.589 35.248 195.437 36.584 195.437 37.992C195.437 39.992 195.773 41.464 196.445 42.408C197.117 43.336 198.149 43.8 199.541 43.8ZM198.989 48.36C197.629 48.36 196.373 48.136 195.221 47.688C194.069 47.224 193.069 46.552 192.221 45.672C191.373 44.792 190.709 43.712 190.229 42.432C189.749 41.152 189.509 39.688 189.509 38.04C189.509 35.912 189.853 33.928 190.541 32.088C191.229 30.248 192.157 28.656 193.325 27.312C194.509 25.968 195.885 24.912 197.453 24.144C199.021 23.376 200.693 22.992 202.469 22.992C203.829 22.992 205.085 23.224 206.237 23.688C207.405 24.136 208.405 24.8 209.237 25.68C210.085 26.56 210.749 27.64 211.229 28.92C211.709 30.2 211.949 31.664 211.949 33.312C211.949 35.424 211.605 37.4 210.917 39.24C210.229 41.064 209.293 42.656 208.109 44.016C206.941 45.36 205.573 46.424 204.005 47.208C202.437 47.976 200.765 48.36 198.989 48.36Z" fill="white"/>
</svg>
