<svg width="57" height="57" viewBox="0 0 57 57" fill="none" xmlns="http://www.w3.org/2000/svg">
<rect x="55.9996" y="56.2036" width="56" height="56" rx="28" transform="rotate(-179.791 55.9996 56.2036)" fill="#222222" fill-opacity="0.05"/>
<path d="M20.1028 27.7983C20.1042 27.4187 20.3875 27.1059 20.7538 27.0576L20.8556 27.0511L35.8555 27.1057C36.2697 27.1072 36.6042 27.4442 36.6027 27.8584C36.6013 28.2381 36.318 28.5509 35.9518 28.5992L35.85 28.6057L20.8501 28.5511C20.4359 28.5496 20.1013 28.2126 20.1028 27.7983Z" fill="#222222"/>
<path d="M29.2938 22.3388C29.0014 22.0455 29.0021 21.5706 29.2954 21.2782C29.5621 21.0123 29.9788 20.9887 30.272 21.207L30.3561 21.2797L36.3841 27.3257C36.6507 27.5932 36.6736 28.0114 36.4535 28.3047L36.3802 28.3886L30.3083 34.3916C30.0138 34.6828 29.5389 34.6801 29.2477 34.3855C28.983 34.1177 28.9611 33.7009 29.1807 33.4086L29.2538 33.3249L34.7898 27.8511L29.2938 22.3388Z" fill="#222222"/>
</svg>
