<svg width="57" height="57" viewBox="0 0 57 57" fill="none" xmlns="http://www.w3.org/2000/svg">
<rect width="56" height="56" rx="28" transform="matrix(0.999993 -0.00364213 -0.00364213 -0.999993 0.203964 56.2036)" fill="#222222" fill-opacity="0.05"/>
<path d="M36.1008 27.7983C36.0994 27.4187 35.8161 27.1059 35.4498 27.0576L35.348 27.0511L20.3481 27.1057C19.9339 27.1072 19.5994 27.4442 19.6009 27.8584C19.6022 28.2381 19.8855 28.5509 20.2518 28.5992L20.3536 28.6057L35.3535 28.5511C35.7677 28.5496 36.1023 28.2126 36.1008 27.7983Z" fill="#222222"/>
<path d="M26.9098 22.3388C27.2023 22.0455 27.2016 21.5706 26.9082 21.2782C26.6416 21.0123 26.2249 20.9887 25.9316 21.207L25.8476 21.2797L19.8195 27.3257C19.5529 27.5932 19.5301 28.0114 19.7501 28.3047L19.8234 28.3886L25.8953 34.3916C26.1898 34.6828 26.6647 34.6801 26.9559 34.3855C27.2207 34.1177 27.2425 33.7009 27.023 33.4086L26.9499 33.3249L21.4139 27.8511L26.9098 22.3388Z" fill="#222222"/>
</svg>
