<svg width="533" height="329" viewBox="0 0 533 329" fill="none" xmlns="http://www.w3.org/2000/svg">
<g clip-path="url(#clip0_27_284)">
<path opacity="0.1" d="M533 210.989C533.009 219.871 531.935 228.722 529.801 237.344C529.083 240.246 528.248 243.091 527.298 245.879C526.134 249.315 524.786 252.687 523.262 255.979C522.492 257.641 521.679 259.274 520.822 260.876C520.836 269.984 518.961 278.997 515.315 287.344C508.722 302.319 496.97 314.427 482.199 321.465C472.951 325.876 462.845 328.194 452.599 328.253H101.181C85.5449 328.288 70.1781 324.181 56.6433 316.351C54.6431 315.193 52.6942 313.959 50.7966 312.65C46.6764 309.803 42.8054 306.612 39.2254 303.11C34.3787 298.369 30.109 293.073 26.5047 287.331C18.0369 273.885 13.5512 258.316 13.5669 242.426C4.99142 227.379 -0.00904846 209.355 -0.00904846 189.987C-0.00904846 165.55 7.93739 143.258 20.9929 126.383C23.7147 122.858 26.6962 119.541 29.9123 116.459C33.0856 113.41 36.4964 110.618 40.1123 108.11C43.0043 106.1 46.028 104.285 49.163 102.68C50.4708 102.01 51.7831 101.386 53.1181 100.802C54.2901 100.281 55.4758 99.7971 56.675 99.3401C58.114 98.791 59.5712 98.2887 61.0464 97.8332C62.5217 97.3776 63.9773 96.9764 65.4134 96.6294C67.5252 96.1135 69.6732 95.6942 71.8574 95.3714C73.6675 95.1044 75.4776 94.9189 77.2878 94.7741C78.7268 94.6715 80.1779 94.6111 81.6411 94.593H82.433C84.044 94.593 85.646 94.6564 87.2344 94.765C87.4018 94.4301 87.5828 94.0907 87.7503 93.7559C88.3838 92.5521 89.04 91.3484 89.7007 90.1673V90.1356C89.8138 89.932 89.927 89.7283 90.0446 89.5292C90.5786 88.5653 91.1352 87.6105 91.7054 86.6647C91.9679 86.2122 92.2258 85.7868 92.4928 85.3569C92.5516 85.2528 92.6105 85.1532 92.6783 85.0492C92.9499 84.5966 93.2259 84.1441 93.5065 83.6916C94.9033 81.4621 96.3559 79.2673 97.8643 77.1072C97.9956 76.9217 98.1178 76.7407 98.249 76.5597C98.4843 76.2248 98.7015 75.8945 98.964 75.5641C99.5885 74.6907 100.231 73.8128 100.878 72.9485C101.331 72.3376 101.783 71.7266 102.272 71.1384C103.449 69.6179 104.657 68.1064 105.892 66.6131C107.128 65.1197 108.431 63.6173 109.748 62.1466C109.929 61.9429 110.11 61.7438 110.3 61.5402L112.232 59.4359C112.327 59.3363 112.409 59.2458 112.499 59.1553C112.73 58.9064 112.952 58.6576 113.201 58.4132C114.237 57.3181 115.3 56.2365 116.368 55.1685C121.823 49.7483 127.635 44.6988 133.764 40.054C134.003 39.8639 134.248 39.6829 134.488 39.5019C135.637 38.6331 136.805 37.7778 137.972 36.9361C144.395 32.3307 151.108 28.1436 158.069 24.401C158.549 24.1294 159.037 23.8715 159.531 23.6136C165.773 20.3133 172.192 17.3584 178.759 14.762C182.337 13.3471 185.978 12.0257 189.683 10.7979C192.136 9.99689 194.597 9.23212 197.091 8.53522C200.946 7.42803 204.85 6.42944 208.802 5.53947C220.446 2.92694 232.291 1.31308 244.208 0.715484C247.829 0.525421 251.49 0.430391 255.191 0.430391C273.053 0.406744 290.844 2.65732 308.137 7.12785C308.316 7.39805 308.561 7.61832 308.848 7.76795C309.135 7.91757 309.456 7.99162 309.78 7.98313H311.301C311.961 8.15962 312.617 8.34516 313.278 8.53522C316.968 9.60017 320.605 10.7602 324.189 12.0152L325.094 12.341C333.94 15.4865 342.547 19.2674 350.847 23.6543C358.329 27.6009 365.533 32.052 372.41 36.9768C373.469 37.737 374.513 38.5048 375.542 39.2802C376.791 38.4747 378.061 37.7069 379.352 36.9768C384.339 34.1383 389.635 31.882 395.136 30.2522C406.639 26.8483 418.809 26.3723 430.542 28.8674C445.589 32.0578 459.21 39.9771 470.211 51.2406C474.693 55.8342 478.685 60.8814 482.122 66.3008C482.371 66.69 482.62 67.0837 482.86 67.4819C485.808 72.2947 488.343 77.3496 490.435 82.5919C490.512 82.782 490.589 82.9675 490.657 83.1576C492.589 88.0635 494.147 93.1085 495.318 98.2495C495.372 98.5074 495.435 98.7699 495.49 99.0324C496.585 104.008 497.329 109.054 497.716 114.133C497.716 114.314 497.716 114.5 497.752 114.685C497.942 117.313 498.039 119.969 498.042 122.654C498.042 125.053 497.961 127.433 497.811 129.791C497.811 130.049 497.775 130.32 497.752 130.583C497.712 131.271 497.653 131.94 497.594 132.633C501.05 135.419 504.285 138.469 507.269 141.756C508.588 143.195 509.864 144.69 511.098 146.24C514.857 150.95 518.16 156.007 520.963 161.341C528.601 175.813 533 192.801 533 210.989Z" fill="#FE8B1D"/>
<path opacity="0.1" d="M481.864 300.06C481.864 310.346 471.202 319.972 452.599 328.262H101.181C84.922 328.262 69.6943 322.379 56.6433 312.12C53.3625 308.228 51.6338 304.196 51.6338 300.056C51.6338 289.123 63.6892 278.918 84.5328 270.293L85.1211 270.057C91.004 267.645 97.5793 265.369 104.765 263.229C104.946 263.174 105.132 263.125 105.313 263.061C111.015 261.387 117.08 259.8 123.509 258.301C123.713 258.255 123.912 258.206 124.116 258.169C126.596 257.581 129.125 257.034 131.709 256.486L132.705 256.278C151.507 252.377 172.88 249.282 196.059 247.182H196.086C199.332 246.88 202.613 246.61 205.929 246.372C209.617 246.078 213.35 245.829 217.124 245.598C220.007 245.413 222.926 245.254 225.854 245.109C225.864 245.105 225.876 245.102 225.888 245.102C225.899 245.102 225.911 245.105 225.922 245.109C239.131 244.444 252.779 244.096 266.735 244.096C301.245 244.096 333.864 246.214 362.767 249.979C362.794 249.974 362.821 249.974 362.848 249.979C367.292 250.558 371.655 251.169 375.908 251.82C377.126 252.01 378.339 252.201 379.529 252.395C384.329 253.17 389.005 253.99 393.557 254.852C447.092 265.03 481.864 281.497 481.864 300.06Z" fill="#FE8B1D"/>
<path d="M394.381 110.513C394.381 110.513 389.593 108.572 374.361 115.554C359.129 122.537 357.228 121.654 353.286 120.605C349.345 119.555 347.146 119.283 342.919 113.45C342.919 113.45 339.937 97.2901 337.036 94.7831C334.135 92.2761 321.89 96.2131 321.89 96.2131C321.89 96.2131 307.187 99.5844 304.386 79.922C304.386 79.922 306.373 65.1152 303.666 60.5718C303.666 60.5718 309.133 62.9249 318.147 59.1237C327.162 55.3224 334.38 63.2191 334.38 63.2191C334.38 63.2191 336.642 69.102 336.416 72.6136C336.19 76.1252 337.62 77.4421 341.919 75.7451C341.919 75.7451 344.032 72.7403 341.041 67.7715C338.05 62.8027 335.914 59.1056 336.746 55.25C337.579 51.3944 339.982 46.041 347.698 43.3665C355.413 40.6921 365.889 40.1988 370.917 38.0855C375.945 35.9722 377.185 34.6236 377.185 34.6236C377.185 34.6236 374.089 37.7235 381.38 50.8695C388.67 64.0155 384.022 69.7174 384.022 69.7174C384.022 69.7174 380.144 78.9626 363.02 78.2114C363.02 78.2114 346.521 78.8133 355.517 85.8094C355.517 85.8094 361.278 84.6373 369.89 81.8995C378.501 79.1617 384.719 90.4614 386.262 98.3219C387.805 106.182 394.381 110.513 394.381 110.513Z" fill="#FE8B1D"/>
<path d="M372.202 44.5793L372.293 44.5522C372.953 47.0592 365.582 57.1416 359.278 65.1559L359.205 65.0971C368.093 53.8109 372.714 46.5207 372.202 44.5793Z" fill="#444053"/>
<path d="M359.332 64.9432L359.373 65.0427C354.336 71.4415 348.005 79.0712 342.937 84.7414C342.453 85.2799 341.973 85.8456 341.512 86.4248L341.367 86.3072C341.819 85.7279 342.313 85.1577 342.797 84.6192C347.861 78.9716 354.291 71.3465 359.332 64.9432Z" fill="#444053"/>
<path d="M341.489 86.1624L341.588 86.3343C332.366 97.8512 331.755 115.749 331.732 115.889L329.786 113.626C329.809 113.482 332.203 97.7608 341.489 86.1624Z" fill="#444053"/>
<path d="M383.706 104.268C383.706 104.268 372.845 98.6115 364.355 100.648C355.866 102.684 336.774 93.4526 336.774 93.4526C336.774 93.4526 328.673 90.1627 327.044 86.4113C327.044 86.4113 321.482 80.5284 321.161 77.4919C320.84 74.4554 315.432 66.8031 311.902 66.5089" stroke="#444053" stroke-miterlimit="10"/>
<path d="M382.108 109.712C382.108 109.712 376.632 106.019 377.271 101.72" stroke="#444053" stroke-miterlimit="10"/>
<path d="M373.709 114.477C373.709 114.477 365.876 111.635 365.111 100.485" stroke="#444053" stroke-miterlimit="10"/>
<path d="M361.079 117.364C361.079 117.364 353.594 111.156 356.079 100.304" stroke="#444053" stroke-miterlimit="10"/>
<path d="M345.878 114.332C345.878 114.332 340.901 103.879 345.331 97.0774" stroke="#444053" stroke-miterlimit="10"/>
<path d="M383.81 97.3761C383.81 97.3761 378.148 99.1862 379.361 102.155" stroke="#444053" stroke-miterlimit="10"/>
<path d="M376.976 87.1172C376.976 87.1172 369.396 89.5202 369.22 100.241" stroke="#444053" stroke-miterlimit="10"/>
<path d="M366.405 84.6193C366.405 84.6193 359.504 93.1359 360.011 100.874" stroke="#444053" stroke-miterlimit="10"/>
<path d="M354.323 87.9589C354.323 87.9589 347.471 94.5116 348.345 98.1545" stroke="#444053" stroke-miterlimit="10"/>
<path d="M350.191 85.6465C350.191 85.6465 343.765 86.7959 342.865 84.6871" stroke="#444053" stroke-miterlimit="10"/>
<path d="M341.842 77.8901C341.842 77.8901 345.087 82.1892 345.915 81.2253" stroke="#444053" stroke-miterlimit="10"/>
<path d="M374.026 75.1704C374.026 75.1704 357.825 76.347 354.16 71.4596" stroke="#444053" stroke-miterlimit="10"/>
<path d="M338.452 56.2229C338.452 56.2229 346.05 72.5367 351.576 74.6138" stroke="#444053" stroke-miterlimit="10"/>
<path d="M346.408 48.453C346.408 48.453 351.074 63.4589 356.857 68.1426" stroke="#444053" stroke-miterlimit="10"/>
<path d="M380.841 62.7846C380.841 62.7846 368.523 68.0702 361.129 62.7213" stroke="#444053" stroke-width="0.75" stroke-miterlimit="10"/>
<path d="M357.377 45.2536C357.377 45.2536 360.192 56.2817 363.984 58.9472" stroke="#444053" stroke-width="0.75" stroke-miterlimit="10"/>
<path d="M378.981 50.426C378.981 50.426 372.057 53.0507 369.478 51.0414" stroke="#444053" stroke-width="0.75" stroke-miterlimit="10"/>
<path d="M335.909 81.4922C335.909 81.4922 335.909 91.1085 333.294 91.7918" stroke="#444053" stroke-miterlimit="10"/>
<path d="M314.509 93.9504C314.509 93.9504 324.917 94.8555 329.7 89.4749" stroke="#444053" stroke-miterlimit="10"/>
<path d="M333.23 70.1337C333.23 70.1337 330.714 79.8858 323.772 82.515" stroke="#444053" stroke-miterlimit="10"/>
<path d="M308.273 83.678C308.273 83.678 315.631 86.2348 321.962 79.7228" stroke="#444053" stroke-miterlimit="10"/>
<path d="M325.044 61.7483C325.044 61.7483 324.352 70.0296 319.849 73.9078" stroke="#444053" stroke-miterlimit="10"/>
<path d="M308.554 71.0569C308.554 71.0569 314.658 71.0976 316.088 69.1065" stroke="#444053" stroke-miterlimit="10"/>
<path d="M352.707 102.503H178.845V190.267H352.707V102.503Z" fill="#33323D"/>
<path d="M407.418 216.93H124.686V274.7H407.418V216.93Z" fill="#33323D"/>
<path d="M192.176 231.37H337.154L366.039 328.579H161.626L192.176 231.37Z" fill="white"/>
<path d="M116.631 182.488V212.486V218.804V274.696H170.79V221.374H361.314V274.696H415.473V218.804V212.486V182.488H116.631Z" fill="#504F60"/>
<path opacity="0.1" d="M415.473 182.488H116.631V212.482H415.473V182.488Z" fill="#33323D"/>
<path opacity="0.8" d="M399.368 201.933C401.822 201.933 403.811 199.944 403.811 197.49C403.811 195.035 401.822 193.046 399.368 193.046C396.913 193.046 394.924 195.035 394.924 197.49C394.924 199.944 396.913 201.933 399.368 201.933Z" fill="#8CCF4D"/>
<path opacity="0.8" d="M379.37 201.933C381.825 201.933 383.814 199.944 383.814 197.49C383.814 195.035 381.825 193.046 379.37 193.046C376.916 193.046 374.926 195.035 374.926 197.49C374.926 199.944 376.916 201.933 379.37 201.933Z" fill="#FA5959"/>
<path d="M346.322 81.3927H185.234V176.931H346.322V81.3927Z" fill="white"/>
<path d="M370.826 220.836C371.166 224.533 368.374 228.121 369.188 231.742C369.36 232.515 369.695 233.249 369.817 234.004C370.152 236.154 368.872 238.19 367.645 239.991L357.133 255.459C356.711 256.137 356.207 256.761 355.631 257.314C353.617 259.124 350.603 258.916 347.965 259.45C346.11 259.826 344.358 260.598 342.828 261.713C342.762 261.765 342.718 261.842 342.705 261.926C342.693 262.01 342.712 262.095 342.761 262.165C343.195 262.762 343.773 263.24 344.44 263.556C345.107 263.872 345.843 264.017 346.58 263.975C346.856 264.337 346.58 264.88 346.2 265.134C345.634 265.523 344.842 265.627 344.747 266.586C344.707 266.92 344.774 267.257 344.937 267.55C345.363 268.198 346.023 268.656 346.779 268.826C350.399 269.94 354.35 267.985 357.074 265.324C359.798 262.663 361.753 259.305 364.428 256.595C365.907 255.097 367.595 253.812 369.116 252.359C372.157 249.463 374.546 245.937 376.809 242.403C377.556 241.378 378.12 240.231 378.474 239.014C378.755 237.81 378.628 236.538 378.954 235.344C379.379 233.782 380.524 232.538 381.475 231.226C383.344 228.655 384.588 225.515 384.339 222.347C384.09 219.179 382.135 216.061 379.149 214.984C378.222 214.616 377.203 214.554 376.239 214.808C375.012 215.183 374.112 216.197 373.275 217.166L371.279 219.469C370.782 219.979 370.387 220.579 370.116 221.238C369.987 221.57 369.958 221.933 370.031 222.281C370.104 222.63 370.277 222.95 370.528 223.202" fill="#FBBEBE"/>
<path opacity="0.05" d="M370.826 220.836C371.166 224.533 368.374 228.121 369.188 231.742C369.36 232.515 369.695 233.249 369.817 234.004C370.152 236.154 368.872 238.19 367.645 239.991L357.133 255.459C356.711 256.137 356.207 256.761 355.631 257.314C353.617 259.124 350.603 258.916 347.965 259.45C346.11 259.826 344.358 260.598 342.828 261.713C342.762 261.765 342.718 261.842 342.705 261.926C342.693 262.01 342.712 262.095 342.761 262.165C343.195 262.762 343.773 263.24 344.44 263.556C345.107 263.872 345.843 264.017 346.58 263.975C346.856 264.337 346.58 264.88 346.2 265.134C345.634 265.523 344.842 265.627 344.747 266.586C344.707 266.92 344.774 267.257 344.937 267.55C345.363 268.198 346.023 268.656 346.779 268.826C350.399 269.94 354.35 267.985 357.074 265.324C359.798 262.663 361.753 259.305 364.428 256.595C365.907 255.097 367.595 253.812 369.116 252.359C372.157 249.463 374.546 245.937 376.809 242.403C377.556 241.378 378.12 240.231 378.474 239.014C378.755 237.81 378.628 236.538 378.954 235.344C379.379 233.782 380.524 232.538 381.475 231.226C383.344 228.655 384.588 225.515 384.339 222.347C384.09 219.179 382.135 216.061 379.149 214.984C378.222 214.616 377.203 214.554 376.239 214.808C375.012 215.183 374.112 216.197 373.275 217.166L371.279 219.469C370.782 219.979 370.387 220.579 370.116 221.238C369.987 221.57 369.958 221.933 370.031 222.281C370.104 222.63 370.277 222.95 370.528 223.202" fill="black"/>
<path d="M378.786 315.998C376.488 317.397 373.628 317.487 370.958 317.157C370.505 317.107 370.021 317.075 369.745 317.406C369.347 317.89 369.817 318.596 370.302 318.985C371.879 320.166 373.73 320.927 375.682 321.198C377.424 321.441 379.182 321.557 380.941 321.546C385.737 321.628 390.561 321.709 395.313 321.017C395.587 320.996 395.854 320.918 396.096 320.786C396.403 320.572 396.615 320.248 396.689 319.881C397.019 318.65 396.39 317.32 395.444 316.464C394.498 315.609 393.281 315.129 392.091 314.654L387.919 313.03C386.937 312.645 385.366 311.636 384.298 311.713C382.348 311.871 380.443 315.03 378.786 315.998Z" fill="#3F3D56"/>
<path opacity="0.05" d="M378.786 315.998C376.488 317.397 373.628 317.487 370.958 317.157C370.505 317.107 370.021 317.075 369.745 317.406C369.347 317.89 369.817 318.596 370.302 318.985C371.879 320.166 373.73 320.927 375.682 321.198C377.424 321.441 379.182 321.557 380.941 321.546C385.737 321.628 390.561 321.709 395.313 321.017C395.587 320.996 395.854 320.918 396.096 320.786C396.403 320.572 396.615 320.248 396.689 319.881C397.019 318.65 396.39 317.32 395.444 316.464C394.498 315.609 393.281 315.129 392.091 314.654L387.919 313.03C386.937 312.645 385.366 311.636 384.298 311.713C382.348 311.871 380.443 315.03 378.786 315.998Z" fill="black"/>
<path d="M381.696 260.586C379.963 262.898 378.162 265.564 378.592 268.428C378.823 269.971 379.687 271.334 380.321 272.759C381.114 274.72 381.701 276.758 382.072 278.841C382.724 281.868 383.375 284.905 383.773 287.978C384.226 291.449 382.099 301.49 381.9 304.988C381.85 305.83 381.755 306.744 381.167 307.35C380.936 307.59 380.628 307.803 380.529 308.097C380.465 308.397 380.514 308.709 380.665 308.975C381.647 311.188 383.651 312.831 385.878 313.772C388.104 314.713 393.521 316.329 395.937 316.415C396.258 316.453 396.584 316.41 396.883 316.288C397.209 316.093 397.466 315.8 397.616 315.451C399.363 312.116 397.684 300.241 397.711 296.472C397.711 293.304 398.476 290.209 398.34 287.068C398.227 284.547 397.553 282.09 397.309 279.574C396.906 275.452 397.662 271.315 398.422 267.243C399.001 264.125 399.58 261.002 400.322 257.916C400.775 256.038 401.3 254.137 402.336 252.486C403.155 251.187 404.269 250.105 405.205 248.865C407.802 245.462 408.954 241.174 408.414 236.928C408.359 236.511 402.386 238.444 401.866 238.67C399.722 239.581 397.749 240.852 396.032 242.426C394.675 243.738 393.566 245.499 392.353 246.974C390.643 249.055 388.955 251.154 387.29 253.268C385.398 255.697 383.534 258.136 381.696 260.586Z" fill="#464353"/>
<path opacity="0.05" d="M381.696 260.437C379.963 262.749 378.162 265.414 378.592 268.283C378.823 269.822 379.687 271.184 380.321 272.61C381.113 274.571 381.7 276.609 382.072 278.692C382.724 281.719 383.375 284.756 383.773 287.828C384.226 291.299 382.099 301.345 381.9 304.843C381.85 305.681 381.755 306.599 381.167 307.201C380.936 307.441 380.628 307.654 380.529 307.948C380.46 308.256 380.509 308.578 380.665 308.853C381.647 311.061 383.651 312.708 385.878 313.645C388.104 314.582 393.521 315.455 395.937 315.532C396.258 315.571 396.584 315.527 396.883 315.406C397.209 315.21 397.466 314.917 397.616 314.568C399.363 311.233 397.684 300.115 397.711 296.349C397.711 293.182 398.476 290.082 398.34 286.941C398.227 284.421 397.553 281.964 397.309 279.447C396.906 275.325 397.662 271.189 398.422 267.12C399.001 263.998 399.58 260.876 400.322 257.789C400.775 255.911 401.3 254.011 402.336 252.359C403.155 251.065 404.269 249.979 405.205 248.766C407.798 245.361 408.951 241.074 408.414 236.828C408.359 236.407 402.386 238.34 401.866 238.57C399.72 239.483 397.747 240.756 396.032 242.335C394.675 243.652 393.566 245.408 392.353 246.861C390.643 248.942 388.955 251.042 387.29 253.16C385.398 255.573 383.534 257.999 381.696 260.437Z" fill="black"/>
<path d="M362.378 209.672C367.759 209.672 372.121 205.31 372.121 199.929C372.121 194.548 367.759 190.186 362.378 190.186C356.997 190.186 352.635 194.548 352.635 199.929C352.635 205.31 356.997 209.672 362.378 209.672Z" fill="#FBBEBE"/>
<path d="M371.148 199.521C372.048 200.958 373.227 202.199 374.616 203.171C376.006 204.143 377.576 204.825 379.235 205.178L378.501 207.834C377.234 212.419 375.786 217.265 372.27 220.442C372.655 218.89 372.157 217.22 371.279 215.885C370.34 214.586 369.227 213.423 367.971 212.428L362.364 207.549C362.197 207.426 362.054 207.272 361.943 207.097C361.808 206.754 361.808 206.372 361.943 206.029C362.658 203.807 364.699 202.409 366.351 200.915C367.182 200.137 367.925 199.271 368.568 198.331C369.718 196.734 370.41 198.331 371.148 199.521Z" fill="#FBBEBE"/>
<path d="M349.539 190.136L349.322 188.326C350.861 188.724 352.318 187.421 353.3 186.063C354.282 184.706 355.196 183.113 356.694 182.551C358.504 181.864 360.441 182.963 362.179 183.868C364.127 184.953 366.265 185.652 368.478 185.927C368.831 185.939 369.181 185.997 369.519 186.099C370.65 186.502 371.189 187.909 371.351 189.208C371.514 190.507 371.469 191.865 372.03 193.014C372.451 193.883 373.18 194.53 373.623 195.385C374.813 197.693 373.664 200.843 374.922 203.105L371.799 200.241C371.51 199.978 371.107 199.707 370.795 199.929C370.483 200.15 370.528 200.485 370.424 200.788C370.121 201.694 369.012 201.947 368.202 201.598C367.392 201.25 366.808 200.481 366.215 199.788C364.835 198.159 363.192 196.729 361.237 196.032C360.391 195.708 359.486 195.568 358.581 195.622C357.677 195.676 356.794 195.922 355.993 196.345C354.535 197.168 353.467 199.087 351.684 199.155C349.236 199.245 348.218 194.688 347.082 192.887C347.496 192.574 347.787 192.126 347.904 191.621C348.021 191.116 347.958 190.586 347.725 190.122C347.924 190.045 349.508 189.842 349.539 190.136Z" fill="#464353"/>
<path d="M390.15 315.921C388.224 317.638 385.724 318.57 383.144 318.532C382.488 318.532 381.579 318.659 381.574 319.315C381.586 319.511 381.651 319.699 381.764 319.858C382.581 321.216 383.87 322.225 385.384 322.691C386.787 323.117 388.29 323.044 389.756 322.972L394.032 322.75C394.838 322.705 395.648 322.664 396.453 322.565C397.259 322.465 398.128 322.298 398.969 322.175C401.031 321.881 403.116 321.782 405.196 321.881C405.748 321.904 406.386 321.881 406.73 321.465C407.074 321.049 406.889 320.297 406.762 319.695C406.509 318.456 406.762 317.157 406.527 315.912C406.115 313.727 404.237 312.057 402.164 311.265C400.241 310.532 396.829 309.695 395.005 310.912C393.05 312.224 391.874 314.36 390.15 315.921Z" fill="#3F3D56"/>
<path d="M394.385 242.788C394.765 244.598 396.499 245.956 396.553 247.766C396.594 249.232 395.544 250.481 394.793 251.725C394.075 253.029 393.469 254.392 392.982 255.798C391.554 259.449 389.785 262.956 387.697 266.274C386.692 267.863 385.57 269.591 385.801 271.46C385.959 272.332 386.265 273.171 386.706 273.94L389.715 279.918C390.376 281.112 390.893 282.381 391.254 283.697C391.512 284.833 391.539 286.009 391.706 287.168C392.181 290.833 393.901 294.526 392.887 298.078C392.797 298.386 392.48 298.757 392.24 298.531C393.231 300.386 394.05 302.26 393.955 304.364C393.915 305.468 393.575 306.626 393.987 307.649C394.22 308.047 394.374 308.487 394.44 308.943C394.44 309.242 394.299 309.527 394.268 309.848C394.186 310.695 394.96 311.401 395.77 311.659C396.58 311.917 397.453 311.907 398.268 312.152C399.838 312.604 400.951 313.962 402.295 314.903C403.657 315.847 405.265 316.371 406.92 316.41C407.155 316.435 407.392 316.388 407.599 316.274C407.718 316.171 407.813 316.044 407.879 315.901C407.944 315.759 407.979 315.603 407.979 315.446C408.051 314.697 407.938 313.941 407.649 313.246C407.36 312.551 406.905 311.937 406.323 311.459C406.07 311.298 405.86 311.078 405.712 310.817C405.636 310.585 405.616 310.338 405.653 310.097C405.898 306.807 405.839 303.502 405.477 300.223C405.314 299.185 405.261 298.132 405.318 297.083C405.409 296.209 405.671 295.34 405.572 294.467C405.472 293.594 405.033 292.806 404.771 291.964C404.318 290.471 404.436 288.869 404.386 287.303C404.305 284.588 403.685 281.927 403.065 279.285C402.825 278.248 402.553 277.158 401.816 276.388C401.191 275.737 400.182 275.108 400.417 274.239C400.546 273.917 400.74 273.626 400.988 273.384C401.28 273.019 401.494 272.598 401.618 272.148C401.741 271.697 401.772 271.226 401.707 270.763C401.972 270.834 402.253 270.809 402.501 270.693C402.749 270.577 402.949 270.378 403.065 270.13C407.957 267.826 411.912 263.211 413.654 258.088C413.752 257.71 413.904 257.349 414.107 257.015C414.559 256.382 415.346 256.11 416.043 255.757C418.234 254.658 419.75 252.59 421.139 250.567C421.949 249.39 422.754 248.178 423.103 246.797C423.293 245.905 423.384 244.994 423.374 244.082L423.497 239.367C423.521 239.062 423.49 238.755 423.406 238.462C423.291 238.18 423.118 237.926 422.899 237.715C421.572 236.302 419.828 235.35 417.921 235C416.636 234.769 415.324 234.814 414.025 234.706C411.504 234.498 409.016 233.719 406.495 233.9C402.531 234.19 399.006 236.937 397.137 240.444C396.48 241.697 395.793 242.788 394.385 242.788Z" fill="#464353"/>
<path d="M372.392 212.124C372.45 212.851 372.352 213.582 372.107 214.269C371.799 214.93 371.021 215.441 370.347 215.174C370.55 214.722 370.007 214.183 369.505 214.242C369.257 214.297 369.025 214.412 368.831 214.577C368.637 214.742 368.487 214.952 368.392 215.188C368.054 215.86 367.942 216.623 368.071 217.365C368.229 218.27 368.763 219.175 368.623 220.08C368.51 220.849 367.944 221.618 368.247 222.342C368.442 222.668 368.686 222.961 368.971 223.211C369.369 223.699 369.564 224.321 369.516 224.949C369.468 225.576 369.18 226.161 368.713 226.583L376.307 226.732C376.031 228.004 376.596 229.302 377.248 230.429C379.071 233.526 381.587 236.159 384.598 238.122C387.609 240.085 391.033 241.324 394.602 241.742C394.41 241.856 394.245 242.011 394.119 242.196C393.993 242.382 393.91 242.592 393.876 242.813C393.841 243.034 393.856 243.26 393.919 243.475C393.982 243.69 394.092 243.888 394.24 244.055C394.856 244.666 395.901 244.589 396.675 244.191C397.449 243.792 398.06 243.136 398.766 242.629C400.011 241.742 401.533 241.331 403.056 241.471C404.006 241.561 404.929 241.869 405.884 241.923C408.699 242.073 411.115 240.05 413.808 239.208C415.781 238.602 418.012 238.602 419.691 237.371C420.406 236.842 420.99 235.973 420.781 235.108C420.605 234.612 420.326 234.159 419.962 233.778C419.007 232.547 418.446 231.063 417.768 229.664C416.414 226.893 414.552 224.4 412.278 222.315C410.566 220.814 408.751 219.434 406.848 218.184C406.385 217.838 405.891 217.535 405.373 217.279C404.681 217.053 404.007 216.78 403.354 216.46C402.449 215.898 401.947 214.907 401.264 214.106C399.757 212.351 397.444 211.541 395.589 210.16C394.345 209.255 393.249 208.015 391.761 207.567C391.041 207.35 390.272 207.332 389.548 207.115C387.91 206.617 386.715 205.16 385.104 204.572C383.828 204.119 382.425 204.228 381.076 204.06C379.593 203.876 378.176 203.338 376.945 202.49C376.536 202.161 376.078 201.898 375.587 201.712C373.555 201.092 373.388 204.879 373.198 206.196C372.895 208.21 372.392 210.147 372.392 212.124Z" fill="#FE8B1D"/>
<path d="M374.374 224.841C374.714 228.538 371.922 232.122 372.736 235.746C372.908 236.52 373.243 237.253 373.365 238.009C373.705 240.159 372.419 242.195 371.193 243.992L360.681 259.423C360.259 260.101 359.754 260.725 359.178 261.278C357.165 263.088 354.151 262.88 351.512 263.414C349.658 263.791 347.906 264.563 346.376 265.677C346.31 265.73 346.266 265.806 346.253 265.89C346.24 265.974 346.26 266.059 346.308 266.129C346.742 266.727 347.32 267.206 347.987 267.522C348.654 267.838 349.39 267.982 350.128 267.94C350.404 268.306 350.128 268.845 349.748 269.098C349.182 269.492 348.39 269.596 348.295 270.555C348.255 270.888 348.322 271.226 348.485 271.519C348.912 272.166 349.572 272.623 350.327 272.795C353.947 273.908 357.898 271.954 360.622 269.293C363.346 266.632 365.301 263.274 367.98 260.563C369.46 259.065 371.148 257.78 372.664 256.328C375.709 253.431 378.071 249.906 380.357 246.372C381.103 245.347 381.667 244.2 382.022 242.982C382.303 241.779 382.176 240.507 382.502 239.312C382.927 237.751 384.072 236.502 385.022 235.194C386.891 232.624 388.136 229.483 387.887 226.316C387.638 223.148 385.683 220.03 382.696 218.953C381.771 218.582 380.75 218.52 379.787 218.777C378.565 219.152 377.66 220.166 376.823 221.134L374.827 223.438C374.329 223.946 373.936 224.548 373.668 225.207C373.539 225.538 373.509 225.899 373.581 226.247C373.653 226.595 373.825 226.915 374.076 227.167" fill="#FBBEBE"/>
<path d="M379.696 209.649C378.311 209.73 376.791 209.866 375.813 210.853C375.406 211.306 375.076 211.822 374.836 212.382C373.89 214.315 372.967 216.333 372.899 218.482C372.84 220.202 373.352 221.881 373.601 223.582C373.818 224.994 373.266 226.433 373.148 227.863C374.863 227.338 377.126 226.623 378.682 225.736C379.702 225.069 380.786 224.505 381.918 224.053C383.57 223.505 386.344 224.447 387.9 225.221C387.986 224.116 387.163 222.202 387.249 221.098C387.263 220.636 387.345 220.178 387.493 219.74C387.728 219.277 388.005 218.836 388.321 218.424C388.922 217.452 389.198 216.315 389.111 215.177C389.024 214.038 388.578 212.957 387.837 212.088C386.448 210.522 384.267 209.934 382.19 209.694C380.88 209.541 379.56 209.494 378.243 209.554" fill="#FE8B1D"/>
<path d="M174.677 177.99L165.753 165.048C165.753 165.048 165.586 161.844 165.002 161.097C164.418 160.35 164.875 158.685 164.875 158.685C164.875 158.685 165.504 157.78 164.961 157.685C164.418 157.59 164.875 155.563 164.875 155.563L164.834 152.318C164.834 152.318 165.337 149.195 164.92 148.449C164.797 148.246 164.736 148.012 164.743 147.775C164.75 147.538 164.826 147.309 164.961 147.114C164.961 147.114 165.459 145.326 164.961 144.851C164.463 144.376 164.586 141.606 164.708 139.398C164.83 137.19 163.834 135.945 163.834 135.615C163.834 135.285 160.54 132.035 160.54 131.741C160.54 131.447 158.454 130.243 157.2 129.931C155.947 129.619 155.327 129.347 155.367 129.18C155.408 129.013 153.408 128.352 153.408 128.352C153.408 128.352 151.657 128.225 150.987 127.352C150.317 126.478 148.272 126.225 148.222 126.216L148.181 126.044C148.181 125.981 148.159 125.917 148.145 125.854C148.31 125.591 148.461 125.319 148.598 125.039L148.715 124.786C149.448 124.791 150.164 124.568 150.765 124.148C151.061 123.903 151.303 123.599 151.475 123.255C151.647 122.911 151.746 122.536 151.765 122.152C151.801 121.383 151.632 120.618 151.277 119.935C150.91 119.188 150.372 118.41 150.562 117.595C150.643 117.247 150.851 116.939 150.96 116.595C151.122 115.924 151.015 115.215 150.661 114.622C150.344 114.02 149.905 113.486 149.552 112.902C149.105 112.155 148.805 111.328 148.67 110.468C148.645 110.01 148.536 109.561 148.349 109.142C148.159 108.847 147.909 108.595 147.616 108.404C146.31 107.473 144.734 106.996 143.131 107.047C141.995 107.083 140.868 107.391 139.737 107.25C139.063 107.134 138.4 106.962 137.755 106.734C136.357 106.318 134.741 106.151 133.524 106.952C132.306 107.753 131.822 109.327 130.994 110.572C130.266 111.658 129.184 112.572 128.641 113.74C128.641 113.74 128.641 113.694 128.641 113.676C128.504 113.942 128.399 114.223 128.329 114.513C128.173 115.435 128.237 116.381 128.514 117.274C128.576 117.755 128.816 118.194 129.189 118.505C129.6 118.772 130.166 118.708 130.646 118.794L130.591 119.03C130.103 121.369 130.512 123.806 131.736 125.858C132.961 127.91 134.912 129.427 137.203 130.108C137.203 130.194 137.203 130.275 137.203 130.361C137.202 130.6 137.187 130.839 137.158 131.076C137.158 131.076 132.963 130.212 131.836 130.795C130.709 131.379 128.501 131.836 128.166 132.153C127.831 132.47 126.998 132.239 126.247 134.194C125.496 136.149 125.414 138.145 124.437 139.063C123.459 139.982 122.98 140.602 122.935 141.267C122.889 141.932 123.061 142.1 122.686 142.308C122.31 142.516 121.781 143.389 121.934 143.724C121.992 143.953 121.98 144.194 121.899 144.416C121.818 144.638 121.673 144.83 121.482 144.969C121.284 145.108 121.126 145.296 121.024 145.515C120.921 145.735 120.878 145.977 120.898 146.218C120.898 146.218 120.645 147.123 120.061 147.345C119.477 147.566 119.102 148.924 119.102 148.924L117.21 151.096L113.463 146.951C113.182 146.641 112.789 146.455 112.371 146.434C111.953 146.413 111.543 146.558 111.232 146.838L109.39 148.494C108.681 148.666 108.039 149.048 107.549 149.589C107.149 150.003 106.826 150.484 106.594 151.01L105.589 151.915C105.272 152.308 105.077 152.786 105.031 153.29C104.984 153.793 105.087 154.299 105.327 154.743L107.73 157.4V157.422C106.878 157.497 106.069 157.827 105.408 158.368C101.824 161.536 101.788 164.446 102.322 165.776C102.856 167.107 107.408 172.225 107.408 172.225C107.408 172.225 110.051 175.659 113.866 177.483L113.839 177.515C113.76 177.597 113.686 177.683 113.617 177.773L113.554 177.854L113.495 177.936L113.427 178.035C113.409 178.061 113.392 178.089 113.377 178.117L113.305 178.234C113.288 178.26 113.273 178.288 113.259 178.316C113.228 178.37 113.201 178.424 113.173 178.479C113.164 178.496 113.154 178.514 113.146 178.533C113.11 178.605 113.074 178.678 113.042 178.759L113.006 178.841C112.983 178.895 112.965 178.949 112.943 179.008C112.929 179.044 112.916 179.08 112.906 179.117L112.852 179.28C112.837 179.318 112.825 179.357 112.816 179.397C112.816 179.456 112.78 179.515 112.766 179.578C112.753 179.642 112.744 179.651 112.735 179.691C112.725 179.732 112.689 179.886 112.671 179.99C112.671 180.026 112.671 180.067 112.649 180.108C112.626 180.149 112.626 180.248 112.612 180.32C112.599 180.393 112.612 180.42 112.612 180.474L112.585 180.678V180.841C112.585 180.918 112.585 180.995 112.563 181.076C112.54 181.158 112.563 181.171 112.563 181.221C112.563 181.352 112.563 181.483 112.563 181.624C112.481 186.493 112.766 187.199 112.766 187.199C112.952 187.649 113.256 188.04 113.645 188.332C114.035 188.625 114.495 188.807 114.979 188.86C115.216 188.878 115.455 188.866 115.69 188.824C117.862 188.448 122.93 187.575 124.74 187.918C125.822 188.118 127.817 187.819 129.238 187.552L129.614 187.48L129.872 188.308L130.695 188.081L131.397 188.484L131.849 188.742C132.673 191.53 136.013 190.579 136.013 190.579L136.805 191.032L144.855 191.24C145.759 191.785 146.714 192.239 147.706 192.598C147.837 192.64 147.972 192.671 148.109 192.688C148.861 192.749 149.617 192.763 150.372 192.729C150.987 192.729 151.462 192.688 151.462 192.688C151.462 192.688 151.381 190.502 151.263 188.054C153.758 187.992 156.248 187.789 158.721 187.443C163.02 186.692 164.812 182.782 165.472 180.692C165.67 181.546 165.811 182.412 165.893 183.285C166.069 184.052 166.293 184.808 166.563 185.547C166.794 186.138 167.098 186.698 167.468 187.213C170.636 186.131 168.717 184.497 168.052 183.8C167.387 183.104 168.504 182.511 168.504 182.511C168.504 182.511 169.382 181.927 169.296 181.388C169.21 180.85 169.17 180.266 172.012 180.307C174.853 180.348 174.677 177.99 174.677 177.99ZM130.637 151.422C130.673 151.657 131.089 154.223 131.424 154.897C131.524 155.342 131.556 155.8 131.519 156.255C129.84 156.119 128.089 156.047 128.089 156.047C128.138 156.108 128.169 156.182 128.179 156.259L127.912 156.201L127.532 156.11L130.628 151.399L130.637 151.422ZM124.5 161.178L127.41 161.631L127.654 161.667C127.572 162.116 127.522 162.569 127.505 163.025C127.505 163.07 127.568 163.12 127.664 163.179C127.623 163.407 127.605 163.639 127.609 163.871C127.654 164.097 129.012 164.595 130.573 165.007C130.551 165.093 130.533 165.174 130.51 165.247C129.13 164.523 126.962 164.183 126.713 163.645C126.464 163.106 119.079 160.527 119.079 160.527L118.346 160.16L120.287 160.527L120.821 160.472C122.031 160.787 123.26 161.023 124.5 161.178Z" fill="url(#paint0_linear_27_284)"/>
<path d="M165.183 179.8C165.183 179.8 164.029 186.787 158.16 187.819C152.29 188.851 132.696 188.647 132.696 188.647C132.696 188.647 121.491 187.031 117.441 177.569C113.391 168.107 110.784 164.337 114.273 164.174C117.762 164.011 136.474 170.51 137.547 170.582C138.619 170.654 166.219 156.196 165.183 179.8Z" fill="#65617D"/>
<path opacity="0.05" d="M165.183 179.8C165.183 179.8 164.029 186.787 158.16 187.819C152.29 188.851 132.696 188.647 132.696 188.647C132.696 188.647 121.491 187.031 117.441 177.569C113.391 168.107 110.784 164.337 114.273 164.174C117.762 164.011 136.474 170.51 137.547 170.582C138.619 170.654 166.219 156.196 165.183 179.8Z" fill="black"/>
<path d="M112.639 187.579C112.821 188.027 113.121 188.416 113.507 188.707C113.892 188.998 114.35 189.179 114.83 189.231C115.067 189.246 115.306 189.232 115.54 189.19C117.69 188.819 122.731 187.95 124.509 188.285C125.577 188.48 127.555 188.186 128.962 187.923C129.899 187.747 130.587 187.579 130.587 187.579C130.587 187.579 128.931 182.081 128.727 181.918C128.523 181.755 121.283 177.393 121.283 177.393L115.554 176.981C114.782 177.096 114.085 177.505 113.608 178.121C113.006 178.854 112.486 180.054 112.449 182.022C112.354 186.869 112.639 187.579 112.639 187.579Z" fill="#3F3D56"/>
<path opacity="0.05" d="M112.639 187.579C112.821 188.026 113.121 188.416 113.507 188.707C113.892 188.998 114.35 189.179 114.83 189.231C114.269 188.506 113.749 187.751 113.273 186.968L113.305 182.959C113.191 181.859 113.336 180.748 113.729 179.715C114.122 178.681 114.752 177.754 115.567 177.008C115.567 177.008 112.549 177.212 112.463 182.049C112.377 186.887 112.639 187.579 112.639 187.579Z" fill="black"/>
<path opacity="0.1" d="M137.488 178.809L142.823 174.632L151.213 166.364L148.951 166.26C148.611 166.478 147.661 167.165 147.625 167.989C147.584 168.998 145.362 168.061 144.199 168.636C143.036 169.211 137.379 176.465 136.388 176.415C135.397 176.365 134.61 175.913 134.194 176.619L134.166 176.664L137.488 178.809Z" fill="black"/>
<path opacity="0.1" d="M113.594 178.13C113.784 178.221 113.979 178.311 114.174 178.393C118.224 180.13 123.224 183.769 123.6 184.429C123.826 184.832 126.727 186.593 128.962 187.914C129.899 187.737 130.587 187.57 130.587 187.57C130.587 187.57 128.931 182.072 128.727 181.909C128.523 181.746 121.283 177.384 121.283 177.384L115.554 176.972C114.775 177.088 114.072 177.504 113.594 178.13Z" fill="black"/>
<path d="M102.353 166.283C102.887 167.604 107.395 172.691 107.395 172.691C107.395 172.691 110.246 176.411 114.3 178.121C118.355 179.832 123.351 183.497 123.722 184.158C123.962 184.583 127.193 186.529 129.465 187.864L129.976 188.163L131.103 188.819L131.7 189.158C131.7 189.158 133.085 188.05 134.465 186.932C135.845 185.814 137.18 184.719 137.18 184.669C137.18 184.62 137.759 183.14 137.633 183.058C137.506 182.977 137.284 182.443 136.759 181.778C136.205 181.04 135.484 180.445 134.655 180.04C133.456 179.423 132.499 178.421 131.94 177.194C131.94 177.194 131.759 177.062 131.487 176.886C130.925 176.499 130.296 176.218 129.632 176.058C128.727 175.945 127.025 174.085 127.025 174.085C126.364 173.654 125.812 173.074 125.414 172.392C124.962 171.487 118.568 167.079 117.975 166.672L133.515 176.655L137.235 179.044L142.57 174.872L150.96 166.604L148.19 166.478C144.118 166.301 136.877 166.025 135.972 166.233C135.231 166.404 134.467 166.454 133.709 166.383C133.709 166.383 131.646 166.473 130.279 165.754C128.913 165.034 126.763 164.695 126.514 164.161C126.265 163.627 118.952 161.065 118.952 161.065C118.952 161.065 108.997 155.775 105.435 158.916C101.874 162.056 101.815 164.953 102.353 166.283Z" fill="#65617D"/>
<path d="M134.47 135.941L135.75 140.199L137.407 149.788L143.484 150.2L145.222 147.304L146.978 144.39C146.978 144.39 148.073 140.516 148.86 136.769C149.552 133.452 150.009 130.23 149.254 129.881C148.579 129.574 148.141 128.456 147.851 127.252C147.815 127.107 147.783 126.954 147.756 126.8C147.553 125.782 147.417 124.753 147.349 123.718C147.349 123.718 134.619 123.057 136.397 128.307C136.715 129.203 136.877 130.148 136.877 131.099C136.877 131.343 136.877 131.583 136.832 131.809C136.744 132.623 136.488 133.41 136.082 134.121C135.675 134.832 135.126 135.452 134.47 135.941Z" fill="#EE8E9E"/>
<path d="M131.827 135.239L132.279 142.48L133.311 148.639L134.47 151.494L135.506 167.098C135.506 167.098 145.462 168.251 147.896 167.075C148.076 167.006 148.232 166.889 148.349 166.735C151.277 162.314 150.317 149.508 150.317 149.508L151.43 141.24L150.688 136.95L148.878 136.76L147.493 136.611C147.493 136.611 147.181 136.995 146.729 137.593C145.502 139.208 143.249 142.394 143.403 143.72C143.606 145.53 143.154 147.399 142.448 147.688C141.742 147.978 141.167 148.476 141.045 147.978C140.869 147.561 140.825 147.1 140.918 146.657C141.045 145.951 140.38 143.801 140.38 143.801C140.38 143.801 139.266 141.281 139.348 140.208C139.429 139.136 139.226 137.891 138.895 137.602C138.565 137.312 138.108 137.022 138.479 135.701C138.85 134.38 136.85 131.805 136.85 131.805L131.827 135.239Z" fill="#E3E8F4"/>
<path opacity="0.1" d="M144.991 153.304L145.407 165.663L147.792 166.989C147.971 166.917 148.127 166.798 148.245 166.645C151.172 162.224 150.213 149.417 150.213 149.417L151.331 141.149L150.584 136.859L148.774 136.669C149.471 133.352 149.924 130.135 149.168 129.782C148.494 129.474 148.055 128.356 147.769 127.157L146.48 135.9C146.48 135.9 146.588 136.687 146.625 137.502C146.678 138.017 146.643 138.537 146.52 139.041C146.353 139.717 146.326 140.421 146.439 141.109C145.692 142.421 145.321 144.856 145.14 147.204C144.896 150.327 144.991 153.304 144.991 153.304Z" fill="black"/>
<path d="M147.806 126.94C147.806 126.94 149.892 127.198 150.553 128.067C151.213 128.936 152.951 129.062 152.951 129.062C152.951 129.062 154.933 129.723 154.892 129.886C154.852 130.049 155.472 130.302 156.702 130.633C157.933 130.963 160.01 132.162 160.01 132.443C160.01 132.723 163.273 135.954 163.273 136.285C163.273 136.615 164.264 137.855 164.142 140.045C164.02 142.235 163.893 145.023 164.391 145.476C164.889 145.928 164.391 147.707 164.391 147.707C164.257 147.9 164.182 148.128 164.175 148.364C164.168 148.599 164.229 148.831 164.35 149.033C164.762 149.775 164.264 152.874 164.264 152.874L164.309 156.101C164.309 156.101 163.857 158.124 164.391 158.21C164.925 158.296 164.309 159.201 164.309 159.201C164.309 159.201 163.857 160.853 164.432 161.599C165.006 162.346 165.174 165.523 165.174 165.523L174.021 178.379C174.021 178.379 174.147 180.737 171.337 180.696C168.527 180.655 168.563 181.235 168.649 181.769C168.735 182.303 167.862 182.886 167.862 182.886C167.862 182.886 166.749 183.466 167.409 184.167C168.07 184.868 169.971 186.484 166.83 187.556C166.46 187.046 166.156 186.491 165.925 185.905C165.659 185.175 165.438 184.43 165.264 183.674C165.264 183.674 164.975 180.529 164.395 180.117C163.816 179.705 163.898 177.718 163.898 177.718C163.898 177.718 164.726 176.107 163.567 175.456C162.409 174.804 145.629 165.5 145.629 165.5L145.222 153.137C145.222 153.137 144.932 144 146.67 140.941C146.556 140.254 146.584 139.55 146.751 138.873C147.041 138.131 146.711 135.733 146.711 135.733L147.806 126.94Z" fill="#3F3D56"/>
<path opacity="0.1" d="M136.972 131.918C136.972 131.918 132.818 131.063 131.7 131.642C130.582 132.221 128.397 132.674 128.08 132.999C127.763 133.325 126.926 133.085 126.179 135.027C125.433 136.968 125.356 138.955 124.401 139.864C123.446 140.774 122.957 141.394 122.916 142.054C122.876 142.715 123.039 142.883 122.668 143.086C122.296 143.29 121.763 144.163 121.921 144.494C122.079 144.824 130.519 152.101 130.519 152.101C130.519 152.101 130.935 154.87 131.306 155.572C131.677 156.273 130.895 165.948 130.066 166.609C129.238 167.27 135.628 167.215 135.628 167.215C135.628 167.215 135.918 160.88 136.167 160.536C136.415 160.192 135.999 153.427 135.999 153.427C135.999 153.427 135.958 147.639 136.497 146.109C137.035 144.58 136.949 139.493 136.949 139.493C136.949 139.493 137.425 136.443 138.004 135.733C138.583 135.022 136.972 131.918 136.972 131.918Z" fill="black"/>
<path d="M136.85 131.796C136.85 131.796 132.696 130.94 131.578 131.515C130.46 132.09 128.27 132.551 127.958 132.873C127.645 133.194 126.799 132.954 126.057 134.9C125.315 136.846 125.229 138.823 124.279 139.733C123.328 140.643 122.83 141.263 122.79 141.923C122.749 142.584 122.916 142.751 122.541 142.96C122.165 143.168 121.636 144.032 121.799 144.362C121.962 144.693 130.397 151.969 130.397 151.969C130.397 151.969 130.809 154.739 131.184 155.44C131.56 156.142 130.768 165.817 129.94 166.478C129.112 167.138 135.524 167.079 135.524 167.079C135.524 167.079 135.814 160.744 136.058 160.405C136.302 160.065 135.895 153.291 135.895 153.291C135.895 153.291 135.854 147.507 136.393 145.978C136.931 144.448 136.868 139.362 136.868 139.362C136.868 139.362 137.343 136.312 137.922 135.601C138.502 134.891 136.85 131.796 136.85 131.796Z" fill="#3F3D56"/>
<path opacity="0.1" d="M136.415 128.298C136.733 129.194 136.895 130.138 136.895 131.09C138.926 131.684 141.097 131.584 143.064 130.806C145.031 130.027 146.683 128.614 147.756 126.791C147.553 125.773 147.417 124.744 147.349 123.709C147.349 123.709 134.637 123.044 136.415 128.298Z" fill="black"/>
<path d="M130.13 121.763C130.128 124.189 131.058 126.523 132.727 128.284C134.396 130.046 136.677 131.099 139.099 131.227C141.522 131.356 143.902 130.55 145.748 128.975C147.594 127.401 148.765 125.178 149.02 122.765C149.275 120.353 148.595 117.934 147.119 116.008C145.643 114.082 143.485 112.796 141.089 112.415C138.693 112.034 136.242 112.587 134.241 113.96C132.241 115.333 130.844 117.422 130.338 119.794C130.199 120.441 130.13 121.101 130.13 121.763Z" fill="#EE8E9E"/>
<path d="M124.052 143.684L121.79 144.385C121.847 144.613 121.835 144.854 121.755 145.075C121.674 145.296 121.528 145.488 121.337 145.625C121.14 145.762 120.983 145.949 120.882 146.167C120.781 146.385 120.74 146.626 120.762 146.865C120.762 146.865 120.514 147.77 119.934 147.983C119.355 148.195 118.984 149.553 118.984 149.553L117.083 151.743C117.083 151.743 116.377 152.322 116.504 152.612C116.631 152.902 115.757 152.983 115.757 152.983L116.21 160.341L120.138 161.088L122.577 160.839L124.559 160.097L126.297 159.061L127.08 157.038L130.555 151.743L124.052 143.684Z" fill="#3F3D56"/>
<path d="M116.323 153.549C116.323 153.549 111.282 146.277 107.517 150.2C103.752 154.123 109.046 160.495 110.286 160.287C111.526 160.079 117.441 159.748 117.441 159.748L116.323 153.549Z" fill="#EE8E9E"/>
<path d="M128.199 150.404L105.93 139.038C105.587 138.863 105.168 138.999 104.993 139.342L96.3089 156.355C96.134 156.698 96.27 157.118 96.6128 157.293L118.882 168.659C119.225 168.834 119.645 168.698 119.82 168.355L128.503 151.342C128.678 150.999 128.542 150.579 128.199 150.404Z" fill="#3F3D56"/>
<path d="M126.128 151.415L106.366 141.328L98.7643 156.221L118.527 166.308L126.128 151.415Z" fill="#FE8B1D"/>
<path d="M101.806 148.743C102.006 148.743 102.168 148.581 102.168 148.381C102.168 148.181 102.006 148.019 101.806 148.019C101.606 148.019 101.444 148.181 101.444 148.381C101.444 148.581 101.606 148.743 101.806 148.743Z" fill="#E6E8EC"/>
<path d="M123.197 159.943C123.529 159.943 123.799 159.674 123.799 159.341C123.799 159.009 123.529 158.739 123.197 158.739C122.865 158.739 122.595 159.009 122.595 159.341C122.595 159.674 122.865 159.943 123.197 159.943Z" fill="#E6E8EC"/>
<path d="M113.06 155.078C113.015 160.536 124.301 161.694 124.301 161.694L127.184 162.147L128.478 162.35L129.017 157.02C129.017 157.02 128.424 156.929 127.686 156.757C126.591 156.504 125.175 156.065 124.88 155.445C124.405 154.418 113.092 149.621 113.06 155.078Z" fill="#EE8E9E"/>
<path opacity="0.1" d="M130.338 119.794C130.597 119.814 130.842 119.922 131.03 120.102C131.347 120.442 131.365 121.043 131.782 121.252C131.937 121.317 132.109 121.336 132.275 121.306C133.374 121.152 134.008 119.912 135.067 119.568C135.683 119.41 136.334 119.466 136.913 119.727C137.149 119.803 137.361 119.938 137.529 120.12C137.882 120.573 137.633 121.252 137.796 121.804C138.022 122.573 138.941 122.876 139.733 122.976C140.524 123.075 141.42 123.134 141.95 123.731C142.125 123.955 142.251 124.214 142.319 124.49C142.387 124.766 142.395 125.054 142.344 125.333C142.296 125.528 142.296 125.732 142.344 125.926C142.561 126.546 143.633 126.451 143.914 125.962C144.122 125.605 144.059 125.311 144.543 125.211C144.889 125.184 145.236 125.244 145.552 125.388C146.395 125.677 147.282 125.813 148.172 125.79C148.739 124.583 149.043 123.269 149.066 121.935C149.089 120.601 148.83 119.277 148.306 118.05C147.781 116.824 147.003 115.722 146.023 114.816C145.043 113.911 143.883 113.224 142.618 112.798C141.354 112.373 140.014 112.22 138.686 112.349C137.358 112.478 136.072 112.886 134.913 113.547C133.754 114.207 132.748 115.105 131.96 116.182C131.172 117.259 130.621 118.49 130.342 119.794H130.338Z" fill="black"/>
<path d="M142.339 125.677C142.292 125.483 142.292 125.279 142.339 125.085C142.391 124.806 142.382 124.519 142.315 124.243C142.247 123.968 142.121 123.71 141.945 123.487C141.416 122.885 140.524 122.831 139.728 122.727C138.932 122.623 138.017 122.324 137.791 121.555C137.628 121.003 137.877 120.328 137.524 119.876C137.359 119.691 137.146 119.555 136.909 119.482C136.33 119.22 135.679 119.163 135.062 119.319C134.003 119.663 133.37 120.903 132.27 121.057C132.104 121.089 131.932 121.071 131.777 121.003C131.361 120.795 131.324 120.193 131.026 119.853C130.524 119.324 129.569 119.668 128.958 119.274C128.587 118.965 128.348 118.527 128.288 118.048C128.014 117.16 127.952 116.221 128.107 115.305C128.464 113.771 129.84 112.717 130.714 111.4C131.533 110.178 131.994 108.631 133.221 107.82C134.447 107.01 136.026 107.191 137.416 107.603C138.054 107.831 138.711 108.004 139.38 108.119C140.497 108.255 141.62 107.952 142.742 107.916C144.332 107.864 145.895 108.342 147.186 109.273C147.477 109.463 147.724 109.713 147.91 110.006C148.096 110.422 148.207 110.868 148.236 111.323C148.368 112.177 148.664 112.998 149.109 113.74C149.453 114.323 149.892 114.848 150.204 115.45C150.553 116.04 150.66 116.742 150.503 117.41C150.394 117.749 150.186 118.057 150.105 118.405C149.924 119.211 150.453 119.985 150.815 120.727C151.167 121.406 151.334 122.166 151.299 122.931C151.28 123.311 151.182 123.684 151.011 124.025C150.841 124.367 150.601 124.669 150.308 124.913C149.694 125.339 148.961 125.562 148.213 125.551C147.306 125.578 146.401 125.442 145.543 125.148C145.226 125.007 144.88 124.946 144.534 124.971C144.05 125.071 144.113 125.365 143.905 125.723C143.629 126.202 142.561 126.297 142.339 125.677Z" fill="#3F3D56"/>
<path opacity="0.1" d="M137.239 179.053L142.574 174.881L150.964 166.613L148.195 166.487C147.87 166.781 147.662 167.183 147.611 167.618C147.57 168.627 145.348 167.686 144.185 168.265C143.022 168.844 137.366 176.094 136.375 176.044C135.384 175.994 134.596 175.542 134.18 176.243L134.153 176.288C133.988 176.479 133.765 176.61 133.519 176.664L137.239 179.053Z" fill="black"/>
<path d="M126.491 178.764L129.17 187.321L129.591 188.679L130.867 188.33L133.682 187.556L146.208 184.117C147.786 184.049 149.33 183.638 150.734 182.913C153.102 181.587 155.812 180.996 158.517 181.216C160.173 181.37 162.015 180.655 163.545 177.832C163.545 177.832 167.016 167.582 158.255 164.645C149.494 161.708 149.073 166.206 149.073 166.206L148.951 166.278C148.611 166.496 147.661 167.184 147.625 168.007C147.584 169.016 145.362 168.08 144.199 168.654C143.036 169.229 137.379 176.483 136.388 176.433C135.397 176.383 134.61 175.931 134.194 176.637L134.166 176.682C133.859 177.103 132.94 177.203 132.329 177.216C132.139 177.226 131.949 177.226 131.759 177.216L131.677 177.239L131.044 177.429L126.491 178.764Z" fill="#65617D"/>
<path opacity="0.1" d="M127.184 162.151L128.478 162.355L129.017 157.024C129.017 157.024 128.424 156.934 127.686 156.762C127.881 157.508 127.437 160.382 127.184 162.151Z" fill="black"/>
<path opacity="0.1" d="M160.988 137.235C160.988 137.235 164.83 136.117 163.88 147.032C163.22 153.694 160.388 159.954 155.82 164.848C155.82 164.848 147.634 168.442 143.955 167.862C140.276 167.283 137.592 167.161 137.592 167.161C136.433 166.576 135.164 166.238 133.868 166.17C131.804 166.088 127.464 164.812 127.378 164.391C127.292 163.971 128.455 157.902 127.958 157.45C127.958 157.45 133.746 157.685 134.325 158.101C134.904 158.518 135.732 158.223 136.352 158.101C136.972 157.979 138.873 156.332 142.633 157.78C142.633 157.78 143.914 157.902 144.412 157.572C144.817 157.383 145.28 157.354 145.706 157.49C146.028 157.383 146.332 157.231 146.611 157.038C146.733 156.875 147.729 157.038 147.729 157.038C147.788 157.064 147.852 157.078 147.917 157.077C147.982 157.077 148.046 157.062 148.105 157.035C148.164 157.007 148.216 156.967 148.258 156.918C148.3 156.868 148.331 156.811 148.349 156.748C148.48 156.411 148.676 156.103 148.928 155.843C148.928 155.843 150.041 149.562 152.15 147.204C152.318 147.057 152.448 146.871 152.527 146.661C152.606 146.452 152.632 146.227 152.602 146.005C152.431 145.335 156.028 135.909 160.988 137.235Z" fill="black"/>
<path d="M160.884 136.393C160.884 136.393 164.73 135.28 163.78 146.191C163.122 152.853 160.29 159.114 155.72 164.007C155.72 164.007 147.534 167.604 143.855 167.025C140.176 166.446 137.488 166.31 137.488 166.31C136.331 165.724 135.064 165.387 133.768 165.319C131.7 165.233 127.36 163.961 127.279 163.541C127.197 163.12 128.351 157.051 127.858 156.594C127.858 156.594 133.646 156.834 134.225 157.25C134.804 157.667 135.628 157.368 136.248 157.25C136.868 157.133 138.769 155.481 142.534 156.925C142.534 156.925 143.814 157.051 144.308 156.721C144.714 156.533 145.175 156.503 145.602 156.635C145.923 156.526 146.227 156.373 146.507 156.182C146.629 156.015 147.62 156.182 147.62 156.182C147.679 156.209 147.744 156.222 147.809 156.222C147.873 156.221 147.937 156.207 147.996 156.179C148.055 156.152 148.107 156.112 148.149 156.063C148.191 156.013 148.222 155.955 148.24 155.893C148.371 155.556 148.568 155.248 148.819 154.988C148.819 154.988 149.937 148.707 152.046 146.349C152.214 146.202 152.344 146.015 152.423 145.806C152.502 145.597 152.528 145.371 152.498 145.15C152.331 144.498 155.924 135.085 160.884 136.393Z" fill="#3F3D56"/>
<path opacity="0.1" d="M131.03 177.406L136.488 184.013L136.524 183.977C136.565 183.85 137.103 182.447 136.977 182.361C136.85 182.275 135.904 180.212 134.003 179.343C133.037 178.872 132.225 178.134 131.664 177.216L131.03 177.406Z" fill="black"/>
<path opacity="0.1" d="M131.103 188.842L131.7 189.181C131.7 189.181 133.085 188.072 134.465 186.955C135.845 185.837 137.18 184.742 137.18 184.692C137.18 184.642 137.759 183.162 137.633 183.081C137.506 182.999 137.284 182.465 136.759 181.8C133.058 180.764 135.402 183.334 135.728 183.452C135.728 183.452 131.225 182.416 130.976 187.326C130.955 187.834 130.997 188.344 131.103 188.842Z" fill="black"/>
<path d="M135.669 190.919L136.456 191.371L144.434 191.575C145.329 192.119 146.275 192.574 147.258 192.933C147.388 192.971 147.522 193 147.656 193.018C148.397 193.079 149.14 193.093 149.883 193.059C150.494 193.059 150.964 193.018 150.964 193.018C150.964 193.018 150.589 182.959 150.304 181.9C150.168 181.393 149.498 181.502 148.837 181.755C148.342 181.958 147.864 182.2 147.407 182.479C147.407 182.479 144.022 182.809 143.484 183.099C142.945 183.389 141.416 182.932 140.466 183.099C139.515 183.266 137.818 181.981 137.818 181.981C133.189 180.452 135.795 183.303 136.126 183.429C136.126 183.429 131.601 182.393 131.37 187.303C131.139 192.213 135.669 190.919 135.669 190.919Z" fill="#3F3D56"/>
<path d="M147.204 187.036C147.29 189.118 148.914 191.702 149.883 193.068C150.494 193.068 150.964 193.028 150.964 193.028C150.964 193.028 150.589 182.968 150.304 181.909C150.168 181.402 149.498 181.511 148.837 181.764C148.036 183.266 147.131 185.353 147.204 187.036Z" fill="#565387"/>
<path opacity="0.1" d="M147.204 187.036C147.29 189.118 148.914 191.702 149.883 193.068C150.494 193.068 150.964 193.028 150.964 193.028C150.964 193.028 150.589 182.968 150.304 181.909C150.168 181.402 149.498 181.511 148.837 181.764C148.036 183.266 147.131 185.353 147.204 187.036Z" fill="black"/>
<path opacity="0.05" d="M145.837 187.312C146.389 189.321 146.38 191.575 147.258 192.942C147.388 192.98 147.522 193.009 147.656 193.028C148.397 193.088 149.141 193.102 149.883 193.068C150.494 193.068 150.964 193.028 150.964 193.028C150.964 193.028 150.589 182.968 150.304 181.909C150.168 181.402 149.498 181.511 148.837 181.764C148.342 181.967 147.864 182.209 147.407 182.488C147.407 182.488 145.136 184.737 145.837 187.312Z" fill="black"/>
<path opacity="0.1" d="M118.314 166.917C118.314 166.917 122.278 168.202 125.636 172.772L118.314 166.917Z" fill="black"/>
<g opacity="0.1">
<path d="M150.516 117.31C150.516 117.342 150.516 117.369 150.494 117.401C150.456 117.519 150.409 117.634 150.353 117.745C150.397 117.596 150.451 117.451 150.516 117.31Z" fill="black"/>
<path d="M128.098 115.305C128.165 115.016 128.269 114.736 128.406 114.473C128.406 114.541 128.36 114.613 128.342 114.685C128.191 115.602 128.255 116.54 128.528 117.428C128.588 117.906 128.825 118.343 129.193 118.654C129.809 119.048 130.763 118.704 131.266 119.233C131.582 119.573 131.601 120.175 132.017 120.383C132.172 120.451 132.344 120.47 132.51 120.437C133.61 120.283 134.243 119.043 135.302 118.699C135.918 118.541 136.57 118.598 137.149 118.862C137.386 118.935 137.599 119.071 137.764 119.256C138.117 119.708 137.868 120.383 138.031 120.935C138.257 121.704 139.176 122.007 139.968 122.107C140.76 122.206 141.656 122.265 142.185 122.867C142.361 123.09 142.486 123.348 142.554 123.623C142.622 123.899 142.631 124.186 142.579 124.465C142.532 124.659 142.532 124.863 142.579 125.057C142.796 125.677 143.869 125.582 144.149 125.094C144.357 124.736 144.294 124.442 144.778 124.342C145.124 124.317 145.471 124.378 145.787 124.519C146.646 124.813 147.55 124.949 148.457 124.922C149.205 124.933 149.938 124.71 150.553 124.284C150.821 124.073 151.041 123.805 151.195 123.501C151.055 124.055 150.737 124.548 150.29 124.904C149.675 125.33 148.943 125.553 148.195 125.542C147.288 125.569 146.383 125.433 145.525 125.139C145.208 124.998 144.862 124.937 144.516 124.962C144.032 125.062 144.095 125.356 143.891 125.714C143.606 126.202 142.534 126.297 142.316 125.677C142.271 125.482 142.271 125.28 142.316 125.085C142.368 124.806 142.36 124.519 142.292 124.243C142.224 123.968 142.098 123.71 141.923 123.487C141.393 122.885 140.502 122.831 139.705 122.727C138.909 122.623 137.995 122.324 137.769 121.555C137.606 121.003 137.855 120.328 137.502 119.876C137.337 119.692 137.126 119.555 136.891 119.482C136.31 119.22 135.657 119.163 135.04 119.319C133.985 119.663 133.347 120.903 132.248 121.057C132.082 121.089 131.909 121.071 131.754 121.003C131.338 120.795 131.302 120.193 131.003 119.853C130.501 119.324 129.551 119.668 128.935 119.274C128.565 118.965 128.325 118.527 128.265 118.048C127.996 117.159 127.939 116.22 128.098 115.305Z" fill="black"/>
</g>
<path opacity="0.1" d="M151.159 148.394C150.399 149.417 149.534 150.363 148.865 151.44C148.137 152.502 147.784 153.775 147.86 155.06C148.552 154.35 148.874 153.363 149.308 152.472C150.05 150.96 151.154 149.68 152.091 148.295C152.268 148.028 153.408 146.485 152.833 146.421C152.354 146.353 151.417 148.046 151.159 148.394Z" fill="black"/>
<path d="M155.232 245.222C155.779 246.978 156.331 248.739 157.015 250.445C158.246 253.411 159.795 256.234 161.635 258.866C162.821 260.599 164.096 262.27 165.454 263.871C167.156 265.876 169.075 267.894 169.654 270.456C170.002 271.935 169.885 273.478 170.029 274.981C170.174 276.483 170.668 278.094 171.894 278.999C172.767 279.646 173.885 279.841 174.958 280.009C175.727 280.131 176.686 280.171 177.084 279.506C177.224 279.234 177.297 278.934 177.297 278.628L177.483 276.415C177.519 275.936 177.691 275.325 178.17 275.302C178.65 275.28 178.89 275.918 179.297 276.207C179.84 276.587 180.655 276.207 180.954 275.633C181.202 275.01 181.218 274.32 180.999 273.687C180.669 272.427 180.077 271.252 179.26 270.238C178.443 269.224 177.421 268.394 176.261 267.804C175.455 267.479 174.682 267.077 173.953 266.605C173.212 265.961 172.598 265.184 172.143 264.315C167.943 257.4 163.721 250.449 160.757 242.924C160.173 241.579 159.779 240.159 159.585 238.706C159.44 237.226 159.671 235.737 159.766 234.253C159.941 231.587 159.694 228.909 159.033 226.32C158.888 225.641 158.633 224.989 158.277 224.392C157.055 222.542 154.204 222.266 152.394 223.542C151.728 224.054 151.175 224.7 150.772 225.438C150.368 226.176 150.122 226.989 150.05 227.827C149.919 229.33 150.783 230.886 151.222 232.285C152.553 236.602 153.889 240.914 155.232 245.222Z" fill="#A1616A"/>
<path opacity="0.05" d="M155.232 245.222C155.779 246.978 156.331 248.739 157.015 250.445C158.246 253.411 159.795 256.234 161.635 258.866C162.821 260.599 164.096 262.27 165.454 263.871C167.156 265.876 169.075 267.894 169.654 270.456C170.002 271.935 169.885 273.478 170.029 274.981C170.174 276.483 170.668 278.094 171.894 278.999C172.767 279.646 173.885 279.841 174.958 280.009C175.727 280.131 176.686 280.171 177.084 279.506C177.224 279.234 177.297 278.934 177.297 278.628L177.483 276.415C177.519 275.936 177.691 275.325 178.17 275.302C178.65 275.28 178.89 275.918 179.297 276.207C179.84 276.587 180.655 276.207 180.954 275.633C181.202 275.01 181.218 274.32 180.999 273.687C180.669 272.427 180.077 271.252 179.26 270.238C178.443 269.224 177.421 268.394 176.261 267.804C175.455 267.479 174.682 267.077 173.953 266.605C173.212 265.961 172.598 265.184 172.143 264.315C167.943 257.4 163.721 250.449 160.757 242.924C160.173 241.579 159.779 240.159 159.585 238.706C159.44 237.226 159.671 235.737 159.766 234.253C159.941 231.587 159.694 228.909 159.033 226.32C158.888 225.641 158.633 224.989 158.277 224.392C157.055 222.542 154.204 222.266 152.394 223.542C151.728 224.054 151.175 224.7 150.772 225.438C150.368 226.176 150.122 226.989 150.05 227.827C149.919 229.33 150.783 230.886 151.222 232.285C152.553 236.602 153.889 240.914 155.232 245.222Z" fill="black"/>
<path d="M128.849 319.157C129.668 319.442 130.538 319.547 131.401 319.465C131.465 318.759 132.415 318.6 133.121 318.637C133.462 318.625 133.801 318.703 134.103 318.863C134.28 318.976 134.415 319.139 134.587 319.257C134.894 319.425 135.238 319.513 135.587 319.515L139.262 319.822C140.9 319.963 142.606 320.089 144.14 319.505C144.446 319.409 144.717 319.226 144.923 318.981C145.339 318.383 144.923 317.528 144.348 317.093C143.774 316.659 143.031 316.464 142.452 316.021C141.176 315.048 141 313.229 140.325 311.772C139.846 310.853 139.255 309.997 138.565 309.224C138.065 308.56 137.483 307.962 136.832 307.446C135.357 306.382 133.664 306.405 131.931 306.251C130.709 306.142 129.56 306.07 128.682 307.156C127.596 308.513 128.03 311.229 128.098 312.813C128.183 314.944 128.434 317.065 128.849 319.157Z" fill="#514E7F"/>
<path opacity="0.05" d="M128.849 319.157C129.668 319.442 130.538 319.547 131.401 319.465C131.465 318.759 132.415 318.6 133.121 318.637C133.462 318.625 133.801 318.703 134.103 318.863C134.28 318.976 134.415 319.139 134.587 319.257C134.894 319.425 135.238 319.513 135.587 319.515L139.262 319.822C140.9 319.963 142.606 320.089 144.14 319.505C144.446 319.409 144.717 319.226 144.923 318.981C145.339 318.383 144.923 317.528 144.348 317.093C143.774 316.659 143.031 316.464 142.452 316.021C141.176 315.048 141 313.229 140.325 311.772C139.846 310.853 139.255 309.997 138.565 309.224C138.065 308.56 137.483 307.962 136.832 307.446C135.357 306.382 133.664 306.405 131.931 306.251C130.709 306.142 129.56 306.07 128.682 307.156C127.596 308.513 128.03 311.229 128.098 312.813C128.183 314.944 128.434 317.065 128.849 319.157Z" fill="black"/>
<path d="M130.333 247.68C129.211 248.042 128.722 249.44 128.931 250.603C129.139 251.766 129.836 252.771 130.41 253.803C132.049 256.73 132.754 260.079 134.13 263.134C135.157 265.396 136.547 267.523 137.56 269.813C138.574 272.103 139.203 274.687 138.588 277.117C138.289 278.298 137.71 279.38 137.325 280.543C136.944 281.803 136.696 283.1 136.583 284.412C136.085 288.868 135.995 293.361 136.316 297.834C136.319 298.379 136.433 298.918 136.651 299.418C136.882 299.87 137.28 300.323 137.103 300.775C137.026 300.961 136.859 301.097 136.777 301.278C136.542 301.784 137.013 302.323 137.443 302.685C137.366 302.821 137.263 302.94 137.139 303.036C137.016 303.131 136.874 303.201 136.723 303.242C137.032 303.438 137.268 303.728 137.399 304.07C137.529 304.411 137.546 304.786 137.447 305.138C137.067 305.196 137.044 305.78 137.284 306.088C137.524 306.396 137.904 306.586 138.076 306.934C138.177 307.218 138.166 307.53 138.045 307.806C137.924 308.082 137.702 308.301 137.425 308.418C136.859 308.636 136.243 308.683 135.651 308.554C134.647 308.415 133.656 308.197 132.687 307.903C132.18 307.803 131.726 307.524 131.408 307.117C131.091 306.709 130.931 306.201 130.958 305.685C130.734 303.843 130.666 301.986 130.754 300.133C130.913 291.154 130.754 282.167 130.365 273.193C130.207 269.573 129.121 266.066 127.722 262.735C126.949 261.033 126.09 259.372 125.147 257.758C123.129 254.065 121.346 249.974 121.808 245.788C121.858 245.336 122.02 244.797 122.468 244.725C122.644 244.706 122.82 244.736 122.98 244.811C123.909 245.245 124.809 245.741 125.672 246.295C127.091 247.127 128.691 247.602 130.333 247.68Z" fill="#464353"/>
<path opacity="0.05" d="M130.333 247.68C129.211 248.042 128.722 249.44 128.931 250.603C129.139 251.766 129.836 252.771 130.41 253.803C132.049 256.73 132.754 260.079 134.13 263.134C135.157 265.396 136.547 267.523 137.56 269.813C138.574 272.103 139.203 274.687 138.588 277.117C138.289 278.298 137.71 279.38 137.325 280.543C136.944 281.803 136.696 283.1 136.583 284.412C136.085 288.868 135.995 293.361 136.316 297.834C136.319 298.379 136.433 298.918 136.651 299.418C136.882 299.87 137.28 300.323 137.103 300.775C137.026 300.961 136.859 301.097 136.777 301.278C136.542 301.784 137.013 302.323 137.443 302.685C137.366 302.821 137.263 302.94 137.139 303.036C137.016 303.131 136.874 303.201 136.723 303.242C137.032 303.438 137.268 303.728 137.399 304.07C137.529 304.411 137.546 304.786 137.447 305.138C137.067 305.196 137.044 305.78 137.284 306.088C137.524 306.396 137.904 306.586 138.076 306.934C138.177 307.218 138.166 307.53 138.045 307.806C137.924 308.082 137.702 308.301 137.425 308.418C136.859 308.636 136.243 308.683 135.651 308.554C134.647 308.415 133.656 308.197 132.687 307.903C132.18 307.803 131.726 307.524 131.408 307.117C131.091 306.709 130.931 306.201 130.958 305.685C130.734 303.843 130.666 301.986 130.754 300.133C130.913 291.154 130.754 282.167 130.365 273.193C130.207 269.573 129.121 266.066 127.722 262.735C126.949 261.033 126.09 259.372 125.147 257.758C123.129 254.065 121.346 249.974 121.808 245.788C121.858 245.336 122.02 244.797 122.468 244.725C122.644 244.706 122.82 244.736 122.98 244.811C123.909 245.245 124.809 245.741 125.672 246.295C127.091 247.127 128.691 247.602 130.333 247.68Z" fill="black"/>
<path d="M115.16 236.765C114.575 236.389 113.9 236.176 113.205 236.149C112.4 236.19 111.712 236.719 111.083 237.226C110.337 237.798 109.63 238.418 108.965 239.082C107.588 240.55 106.628 242.359 106.186 244.323C105.743 246.287 105.834 248.333 106.449 250.25C107.114 252.246 108.331 254.006 109.535 255.73L111.979 259.242C115.708 264.595 119.436 269.949 123.342 275.175C123.343 275.304 123.384 275.429 123.461 275.532C123.537 275.636 123.645 275.712 123.767 275.75C123.908 275.786 124.084 275.782 124.17 275.9C124.21 275.973 124.227 276.056 124.22 276.139C124.211 276.526 124.138 276.908 124.003 277.271C123.939 277.39 123.923 277.529 123.957 277.66C124.084 277.954 124.618 277.787 124.79 278.063C124.903 278.244 124.763 278.479 124.613 278.633C124.464 278.787 124.279 278.959 124.306 279.171C124.333 279.384 124.704 279.624 124.69 279.886C124.69 280.04 124.555 280.158 124.46 280.28C124.327 280.475 124.266 280.71 124.288 280.945C124.311 281.18 124.414 281.399 124.582 281.565C124.84 284.118 123.45 286.543 123.174 289.086C122.722 293.105 124.555 297.028 124.776 301.06C124.763 301.514 124.85 301.965 125.03 302.382C125.405 303.079 126.387 303.499 126.338 304.291C126.267 304.617 126.174 304.937 126.062 305.251C125.985 305.703 126.202 306.156 126.211 306.608C126.22 307.061 125.817 307.617 125.392 307.436C125.712 308.504 125.997 309.581 126.247 310.667L134.8 311.373C134.892 310.605 134.866 309.826 134.723 309.066C134.547 308.237 134.175 307.468 133.981 306.649C133.854 306.246 133.819 305.82 133.877 305.401C133.935 304.982 134.084 304.582 134.316 304.228C134.093 304.231 133.876 304.154 133.704 304.013C133.532 303.871 133.415 303.673 133.374 303.454C133.303 303.013 133.311 302.562 133.397 302.124C133.623 299.893 132.687 297.693 132.714 295.453C132.741 293.689 133.361 291.992 133.673 290.258C134.343 286.548 133.646 282.525 135.298 279.135C136.298 277.094 137.683 274.832 136.56 272.854C136.008 271.877 135.031 271.207 134.393 270.284C133.872 269.411 133.482 268.467 133.234 267.482C131.917 263.41 129.786 259.627 127.917 255.753C127.398 254.782 127.013 253.745 126.772 252.671C126.64 251.728 126.592 250.776 126.627 249.825C126.627 248.117 126.523 246.411 126.315 244.716C126.273 243.973 126.061 243.25 125.695 242.602C125.326 242.112 124.865 241.699 124.337 241.385C121.532 239.462 118.192 238.362 115.16 236.765Z" fill="#464353"/>
<path d="M125.41 322.293C126.231 322.574 127.103 322.677 127.967 322.596C128.03 321.89 128.976 321.732 129.682 321.768C130.023 321.757 130.362 321.835 130.664 321.994C130.84 322.108 130.976 322.275 131.153 322.388C131.458 322.558 131.803 322.647 132.153 322.646L135.823 322.954C137.465 323.094 139.167 323.225 140.705 322.637C141.011 322.542 141.281 322.359 141.484 322.112C141.9 321.515 141.484 320.664 140.909 320.23C140.334 319.795 139.592 319.596 139.018 319.152C137.737 318.18 137.565 316.365 136.886 314.908C136.411 313.986 135.821 313.128 135.13 312.355C134.629 311.693 134.045 311.097 133.393 310.582C131.922 309.514 130.225 309.536 128.496 309.382C127.27 309.274 126.12 309.206 125.247 310.287C124.161 311.645 124.595 314.36 124.659 315.949C124.744 318.08 124.995 320.201 125.41 322.293Z" fill="#514E7F"/>
<path d="M163.318 221.953C167.997 221.953 171.79 218.161 171.79 213.482C171.79 208.803 167.997 205.011 163.318 205.011C158.64 205.011 154.847 208.803 154.847 213.482C154.847 218.161 158.64 221.953 163.318 221.953Z" fill="#A1616A"/>
<path d="M155.327 215.998C154.114 217.043 152.372 217.12 150.779 217.283C147.373 217.633 144.057 218.593 140.991 220.116C140.566 220.299 140.182 220.563 139.859 220.894C139.584 221.253 139.388 221.667 139.285 222.107C138.993 223.06 138.884 224.06 138.963 225.053C139.074 226.017 139.351 226.954 139.782 227.823C140.958 230.257 142.772 232.326 145.032 233.81C145.43 234.106 145.882 234.323 146.362 234.448C147.475 234.679 148.552 234.036 149.652 233.746C150.652 233.485 151.706 233.518 152.688 233.841C153.594 234.149 154.585 234.71 155.481 234.335C156.054 234.014 156.5 233.506 156.743 232.896C157.609 231.26 158.381 229.577 159.056 227.854C159.298 227.182 159.578 226.523 159.893 225.881C160.875 224.012 162.572 222.569 163.418 220.627C163.504 220.479 163.556 220.314 163.57 220.143C163.584 219.973 163.56 219.801 163.499 219.641C163.343 219.424 163.125 219.259 162.875 219.166C161.624 218.449 160.483 217.555 159.49 216.509C158.933 215.975 157.911 214.532 157.11 214.405C156.209 214.251 155.938 215.473 155.327 215.998Z" fill="#A1616A"/>
<path d="M155.526 233.212C154.544 233.665 153.385 233.47 152.322 233.249C149.58 232.674 146.806 232.095 144.267 230.909C143.474 230.605 142.786 230.077 142.289 229.388C141.98 228.8 141.793 228.155 141.737 227.492L141.285 224.325C141.122 223.225 141.402 222.207 141.43 221.094C141.447 220.97 141.439 220.845 141.407 220.724C141.376 220.604 141.32 220.491 141.244 220.392C141.089 220.262 140.889 220.199 140.687 220.216C139.416 220.238 138.646 221.573 137.755 222.478C137.24 223.001 136.624 223.413 135.945 223.691C135.13 224.026 134.135 224.261 133.795 225.076C133.66 225.415 133.678 225.8 133.533 226.139C132.963 227.497 130.533 227.044 129.913 228.402C129.736 228.782 129.75 229.257 129.46 229.556C129.17 229.855 128.627 229.85 128.179 229.922C126.41 230.212 125.555 232.253 124.043 233.217C122.772 234.031 121.133 234.013 119.762 234.647C119.002 235 118.328 235.552 117.522 235.783C116.717 236.013 115.807 235.891 114.943 235.914C114.851 235.905 114.758 235.916 114.67 235.944C114.582 235.973 114.501 236.02 114.432 236.081C114.378 236.163 114.342 236.256 114.327 236.353C114.313 236.449 114.319 236.548 114.346 236.642C114.765 239.318 115.873 241.839 117.563 243.956C119.252 246.073 121.464 247.714 123.98 248.716C124.272 248.809 124.549 248.943 124.804 249.114C125.573 249.689 125.709 250.924 126.582 251.332C126.897 251.443 127.237 251.464 127.564 251.394C127.89 251.324 128.191 251.164 128.433 250.933C128.915 250.469 129.368 249.977 129.79 249.458C130.588 248.625 131.635 248.074 132.773 247.888C133.822 247.72 134.995 247.843 135.845 247.196C136.193 246.876 136.517 246.531 136.814 246.164C137.444 245.576 138.192 245.128 139.008 244.851C141.239 243.97 143.596 243.452 145.991 243.317C148.222 243.195 150.516 243.399 152.625 242.675C153.173 242.505 153.677 242.219 154.105 241.838C154.558 241.347 154.896 240.761 155.091 240.122C155.852 237.899 156.002 235.513 155.526 233.212Z" fill="#FE8B1D"/>
<path d="M144.606 220.727C145.231 220.668 145.86 220.727 146.489 220.727C147.226 220.727 147.955 220.546 148.693 220.541C149.861 220.56 150.992 220.952 151.922 221.66C152.851 222.367 153.531 223.353 153.861 224.474C153.923 224.653 153.934 224.846 153.892 225.031C153.868 225.122 153.811 225.201 153.733 225.254C153.655 225.308 153.561 225.331 153.467 225.32C153.222 224.651 152.902 224.012 152.512 223.415C151.811 222.458 150.811 221.76 149.67 221.433C148.533 221.111 147.334 221.067 146.177 221.306C145.692 221.397 145.222 221.523 144.751 221.655L142.488 222.279C142.072 222.392 141.651 222.505 141.248 222.655C140.936 222.772 140.402 223.202 140.095 223.22C139.678 223.22 140.013 222.858 140.199 222.614C140.568 222.11 141.085 221.734 141.678 221.537C142.619 221.152 143.602 220.88 144.606 220.727Z" fill="#FE8B1D"/>
<path d="M150.317 246.173C150.865 247.929 151.412 249.689 152.1 251.395C153.33 254.362 154.879 257.186 156.721 259.817C157.907 261.549 159.182 263.22 160.54 264.822C162.237 266.826 164.133 268.845 164.739 271.401C165.088 272.886 164.97 274.429 165.115 275.927C165.26 277.425 165.753 279.04 166.975 279.945C167.853 280.588 168.971 280.782 170.043 280.954C170.808 281.076 171.767 281.117 172.17 280.452C172.307 280.179 172.379 279.879 172.383 279.574L172.564 277.361C172.604 276.882 172.776 276.271 173.251 276.248C173.727 276.225 173.976 276.863 174.383 277.153C174.926 277.533 175.74 277.153 176.039 276.578C176.285 275.956 176.301 275.266 176.084 274.632C175.753 273.374 175.16 272.199 174.344 271.185C173.527 270.171 172.506 269.341 171.346 268.75C170.539 268.424 169.765 268.022 169.034 267.55C168.292 266.906 167.678 266.128 167.224 265.256C163.02 258.346 158.798 251.395 155.838 243.865C155.254 242.521 154.858 241.104 154.661 239.652C154.521 238.172 154.747 236.683 154.847 235.199C155.022 232.532 154.775 229.855 154.114 227.266C153.97 226.586 153.713 225.934 153.354 225.338C152.136 223.483 149.281 223.211 147.471 224.487C146.804 225 146.25 225.646 145.846 226.383C145.442 227.121 145.195 227.935 145.122 228.773C144.991 230.275 145.86 231.832 146.294 233.23C147.631 237.551 148.972 241.865 150.317 246.173Z" fill="#A1616A"/>
<path d="M175.641 207.49C175.709 206.784 175.075 206.133 174.356 205.68C173.598 205.292 172.87 204.847 172.179 204.35C171.536 203.793 171.183 203.069 170.541 202.513C169.81 201.956 168.981 201.543 168.097 201.295C166.217 200.636 164.243 200.283 162.25 200.25C160.237 200.25 158.178 200.702 156.662 201.73C156.288 201.965 155.965 202.273 155.711 202.635C155.472 203.069 155.319 203.545 155.259 204.038C154.898 205.556 154.409 207.041 153.797 208.477C153.168 210.074 152.498 211.731 151.019 212.966C149.435 214.283 147.014 215.043 145.968 216.636C145.853 216.778 145.772 216.944 145.732 217.122C145.692 217.301 145.694 217.486 145.738 217.663C145.887 218.066 146.367 218.342 146.81 218.596C149.38 220.071 151.598 221.985 152.738 224.27C153.879 226.556 153.847 229.248 152.222 231.352C151.625 232.131 150.801 233.054 151.385 233.837C152.29 235.027 155.318 234.344 156.024 235.602C156.245 236.004 156.114 236.461 156.114 236.9C156.114 238.222 157.386 239.394 158.929 240.005C160.472 240.616 162.259 240.761 163.997 240.837C164.459 239.801 164.504 238.626 164.124 237.557C164.008 237.326 163.963 237.066 163.993 236.81C164.122 236.525 164.323 236.279 164.576 236.095C166.432 234.339 166.038 231.76 164.925 229.674C163.812 227.587 162.074 225.682 161.427 223.487C161.106 222.397 161.106 221.17 161.97 220.265C162.466 219.83 163.001 219.441 163.567 219.102C164.58 218.415 165.359 217.437 165.803 216.297C166.323 214.853 166.255 213.129 167.767 212.156C169.219 211.251 171.26 211.513 172.867 210.893C174.102 210.405 175.541 208.527 175.641 207.49Z" fill="#464353"/>
<path d="M263.387 278.398C256.485 275.542 254.458 273.478 254.458 269.347C254.458 266.179 255.852 262.523 261.961 262.523C265.338 262.473 268.656 263.417 271.5 265.238L273.487 259.984C271.184 258.626 267.935 257.364 263.174 257.205V249.512H259.16V257.522C251.861 258.712 247.634 263.708 247.634 270.293C247.634 277.194 251.707 280.846 259.816 284.018C265.69 286.412 268.763 289.109 268.763 293.471C268.763 297.997 264.957 301.246 259.323 301.246C254.884 301.246 249.851 299.739 246.996 297.834L245.091 303.146C247.869 305.133 252.63 306.558 257.228 306.64V314.65H264.056V306.4C272.202 305.043 276.587 299.16 276.587 292.915C276.587 285.855 271.559 281.728 263.387 278.398Z" fill="url(#paint1_linear_27_284)"/>
<path d="M257.246 312.84V304.83C252.648 304.748 247.887 303.323 245.109 301.336L247.014 296.024C249.869 297.929 254.902 299.436 259.341 299.436C264.975 299.436 268.763 296.187 268.763 291.661C268.763 287.299 265.672 284.602 259.798 282.221C251.707 279.054 247.616 275.397 247.616 268.496C247.616 261.912 251.843 256.916 259.142 255.726V247.716H263.156V255.409C267.916 255.567 271.166 256.834 273.469 258.188L271.482 263.419C268.637 261.598 265.32 260.654 261.943 260.704C255.834 260.704 254.44 264.355 254.44 267.528C254.44 271.65 256.467 273.714 263.368 276.578C271.541 279.909 276.569 284.036 276.569 291.096C276.569 297.363 272.206 303.232 264.038 304.581V312.84H257.246Z" fill="#FE8B1D"/>
</g>
<defs>
<linearGradient id="paint0_linear_27_284" x1="138.388" y1="192.774" x2="138.388" y2="106.386" gradientUnits="userSpaceOnUse">
<stop stop-color="#808080" stop-opacity="0.25"/>
<stop offset="0.54" stop-color="#808080" stop-opacity="0.12"/>
<stop offset="1" stop-color="#808080" stop-opacity="0.1"/>
</linearGradient>
<linearGradient id="paint1_linear_27_284" x1="245.109" y1="282.086" x2="276.587" y2="282.086" gradientUnits="userSpaceOnUse">
<stop stop-color="#808080" stop-opacity="0.25"/>
<stop offset="0.54" stop-color="#808080" stop-opacity="0.12"/>
<stop offset="1" stop-color="#808080" stop-opacity="0.1"/>
</linearGradient>
<clipPath id="clip0_27_284">
<rect width="533" height="328.157" fill="white" transform="translate(0 0.421326)"/>
</clipPath>
</defs>
</svg>
