<svg width="25" height="24" viewBox="0 0 25 24" fill="none" xmlns="http://www.w3.org/2000/svg">
<path d="M3.73372 23.808C2.50972 21.84 1.68172 19.8 1.24972 17.688C0.841719 15.576 0.817719 13.5 1.17772 11.46C1.53772 9.396 2.28172 7.416 3.40972 5.52C4.56172 3.624 6.09772 1.92 8.01772 0.407999L11.1137 2.28C11.4017 2.448 11.5937 2.64 11.6897 2.856C11.8097 3.072 11.8577 3.3 11.8337 3.54C11.8337 3.756 11.7857 3.972 11.6897 4.188C11.5937 4.404 11.4737 4.584 11.3297 4.728C10.8737 5.256 10.4057 6 9.92572 6.96C9.46972 7.896 9.13372 8.976 8.91772 10.2C8.72572 11.4 8.73772 12.708 8.95372 14.124C9.16972 15.54 9.73372 16.968 10.6457 18.408C11.1257 19.152 11.2577 19.812 11.0417 20.388C10.8257 20.94 10.3817 21.324 9.70972 21.54L3.73372 23.808ZM16.1177 23.808C14.8937 21.84 14.0657 19.8 13.6337 17.688C13.2257 15.576 13.2017 13.5 13.5617 11.46C13.9217 9.396 14.6657 7.416 15.7937 5.52C16.9457 3.624 18.4817 1.92 20.4017 0.407999L23.4977 2.28C23.7857 2.448 23.9777 2.64 24.0737 2.856C24.1937 3.072 24.2417 3.3 24.2177 3.54C24.2177 3.756 24.1697 3.972 24.0737 4.188C23.9777 4.404 23.8577 4.584 23.7137 4.728C23.2577 5.256 22.7897 6 22.3097 6.96C21.8537 7.896 21.5177 8.976 21.3017 10.2C21.1097 11.4 21.1217 12.708 21.3377 14.124C21.5537 15.54 22.1177 16.968 23.0297 18.408C23.5097 19.152 23.6417 19.812 23.4257 20.388C23.2097 20.94 22.7657 21.324 22.0937 21.54L16.1177 23.808Z" fill="#FE8B1D"/>
</svg>
