<svg width="81" height="80" viewBox="0 0 81 80" fill="none" xmlns="http://www.w3.org/2000/svg">
<path opacity="0.4" d="M40.5 73.3333C58.9095 73.3333 73.8334 58.4095 73.8334 40C73.8334 21.5905 58.9095 6.66663 40.5 6.66663C22.0905 6.66663 7.16669 21.5905 7.16669 40C7.16669 58.4095 22.0905 73.3333 40.5 73.3333Z" fill="#FE8B1D"/>
<path d="M60 45.1C59.7334 44.5 59.2667 44 58.6333 43.7333C58.3333 43.6 58 43.5333 57.6666 43.5333H23.3C21.9333 43.5333 20.8 44.6667 20.8 46.0333C20.8 47.4 21.9333 48.5333 23.3 48.5333H51.6333L45.7666 54.4C44.8 55.3667 44.8 56.9667 45.7666 57.9333C46.2666 58.4333 46.9 58.6667 47.5333 58.6667C48.1666 58.6667 48.8001 58.4333 49.3001 57.9333L59.4333 47.8C59.6666 47.5667 59.8333 47.3 59.9667 47C60.2333 46.4 60.2334 45.7 60 45.1Z" fill="#FE8B1D"/>
<path d="M57.6667 31.4334H29.3333L35.2 25.5668C36.1667 24.6001 36.1667 23 35.2 22.0333C34.2334 21.0667 32.6334 21.0667 31.6667 22.0333L21.5333 32.1667C21.3 32.4 21.1333 32.6668 21 32.9668C20.7333 33.5668 20.7333 34.2667 21 34.8667C21.2667 35.4667 21.7333 35.9667 22.3667 36.2334C22.6667 36.3667 23 36.4334 23.3334 36.4334H57.7C59.0667 36.4334 60.2 35.3 60.2 33.9334C60.2 32.5667 59.0667 31.4334 57.6667 31.4334Z" fill="#FE8B1D"/>
</svg>
