<svg width="81" height="80" viewBox="0 0 81 80" fill="none" xmlns="http://www.w3.org/2000/svg">
<path d="M17.1666 50C14.0333 50 11.1333 51.1 8.83331 52.9333C5.76665 55.3667 3.83331 59.1333 3.83331 63.3333C3.83331 65.8333 4.53332 68.2 5.76665 70.2C8.06665 74.0667 12.3 76.6667 17.1666 76.6667C20.5333 76.6667 23.6 75.4333 25.9333 73.3333C26.9667 72.4667 27.8666 71.4 28.5666 70.2C29.8 68.2 30.5 65.8333 30.5 63.3333C30.5 55.9667 24.5333 50 17.1666 50ZM24.0667 61.9L16.9667 68.4666C16.5 68.8999 15.8666 69.1333 15.2666 69.1333C14.6333 69.1333 14 68.9001 13.5 68.4001L10.2 65.1001C9.23333 64.1334 9.23333 62.5332 10.2 61.5666C11.1667 60.5999 12.7667 60.5999 13.7333 61.5666L15.3333 63.1667L20.6667 58.2332C21.6667 57.2999 23.2666 57.3667 24.2 58.3667C25.1333 59.3667 25.0667 60.9667 24.0667 61.9Z" fill="#FE8B1D"/>
<path opacity="0.4" d="M65.4333 43.1667H72.1666V38.3667C72.1666 31.4667 66.5333 25.8334 59.6333 25.8334H21.3666C14.4666 25.8334 8.83331 31.4667 8.83331 38.3667V52.9334C11.1333 51.1001 14.0333 50 17.1666 50C24.5333 50 30.5 55.9667 30.5 63.3334C30.5 65.8334 29.8 68.2 28.5666 70.2C27.8666 71.4 26.9667 72.4667 25.9333 73.3334H59.6333C66.5333 73.3334 72.1666 67.7 72.1666 60.8V56.8333H65.8333C62.2333 56.8333 58.9333 54.2 58.6333 50.6C58.4333 48.5 59.2333 46.5333 60.6333 45.1667C61.8666 43.9 63.5666 43.1667 65.4333 43.1667Z" fill="#FE8B1D"/>
<path d="M50 13.1667V25.8333H21.3666C14.4666 25.8333 8.83331 31.4667 8.83331 38.3667V26.1334C8.83331 22.1668 11.2666 18.6333 14.9666 17.2333L41.4333 7.23328C45.5666 5.69995 50 8.73338 50 13.1667Z" fill="#FE8B1D"/>
<path d="M75.7 46.5666V53.4335C75.7 55.2668 74.2333 56.7667 72.3666 56.8333H65.8333C62.2333 56.8333 58.9333 54.2 58.6333 50.6C58.4333 48.5 59.2333 46.5333 60.6333 45.1667C61.8666 43.9 63.5666 43.1667 65.4333 43.1667H72.3666C74.2333 43.2334 75.7 44.7333 75.7 46.5666Z" fill="#FE8B1D"/>
<path d="M47.1666 42.5H23.8333C22.4666 42.5 21.3333 41.3667 21.3333 40C21.3333 38.6333 22.4666 37.5 23.8333 37.5H47.1666C48.5333 37.5 49.6666 38.6333 49.6666 40C49.6666 41.3667 48.5333 42.5 47.1666 42.5Z" fill="#FE8B1D"/>
</svg>
